<svg xmlns="http://www.w3.org/2000/svg" xmlns:xlink="http://www.w3.org/1999/xlink" viewBox="0 0 163.29 87.96"><defs><style>.cls-1{fill:none;}.cls-2{fill:#93725e;}.cls-3{fill:url(#Nouvelle_nuance_de_motif_1);}</style><pattern id="Nouvelle_nuance_de_motif_1" data-name="Nouvelle nuance de motif 1" width="107" height="107" patternTransform="matrix(-0.61, 0.07, 0.07, 0.61, -167.52, 115.29)" patternUnits="userSpaceOnUse" viewBox="0 0 107 107"><rect class="cls-1" width="107" height="107"/><rect class="cls-2" width="107" height="107"/></pattern></defs><g id="Calque_2" data-name="Calque 2"><g id="Calque_1-2" data-name="Calque 1"><path class="cls-3" d="M107.77,1q11.06,4.47,21.85,9.56t21.17,10.76q5.91,3.21,11.72,6.63l.5-.86q-17.53-7.65-35.65-13.89-9.1-3.12-18.33-5.89-4.59-1.38-9.19-2.66c-1.53-.42-3.06-.86-4.6-1.25a15.16,15.16,0,0,0-4.49-.61c-5.71.27-9.5,5.3-14.52,7.33a.5.5,0,0,0,.13,1q17.1,1.47,34.05,4.3c11.48,1.91,22.9,4.26,34.16,7.22,6.07,1.59,12.1,3.37,18.06,5.38.61.21.87-.76.27-1a303.48,303.48,0,0,0-33.1-9c-11.43-2.46-23-4.41-34.57-5.92q-9.41-1.23-18.87-2.05l.13,1A33,33,0,0,0,82.82,7.3,19.43,19.43,0,0,1,89.1,4c3-.73,6,.35,8.86,1.14s6,1.67,9,2.55q18.12,5.36,35.78,12.13,10,3.82,19.8,8.1c.57.25,1.08-.53.5-.86Q152.68,21,142,15.54T120.45,5.28Q114.29,2.57,108,0c-.6-.24-.86.72-.27,1Z"/><path class="cls-3" d="M107.77,1c3.66.81,7.46.47,11.17.56a22.47,22.47,0,0,1,5.66.73,27.44,27.44,0,0,1,5.65,2.45A158.91,158.91,0,0,1,151.17,19c3.76,2.93,7.48,5.92,11.24,8.85.5.39,1.21-.31.71-.71-6.72-5.24-13.31-10.67-20.27-15.6-3.47-2.45-7-4.78-10.72-6.91-3.49-2-7.07-3.67-11.14-4C116.7.32,112.28,1,108,0c-.63-.14-.9.82-.27,1Z"/><path class="cls-3" d="M88.53,12.14,93,19.88a8.66,8.66,0,0,0,2.09,2.84,6.23,6.23,0,0,0,3.35.8q7.6.56,15.2,1.08l32,2.2q8.55.6,17.09,1.22c.64,0,.64-1,0-1-10.16-.75-20.33-1.44-30.5-2.14s-20.47-1.4-30.7-2.13c-1.35-.1-2.7-.19-4-.3a3.34,3.34,0,0,1-2.07-.7,6.6,6.6,0,0,1-1.18-1.63l-4.88-8.49a.5.5,0,0,0-.86.51Z"/><path class="cls-3" d="M107.6.56a12,12,0,0,0,0,5.06.5.5,0,1,0,1-.26,11,11,0,0,1,0-4.53.52.52,0,0,0-.35-.62.49.49,0,0,0-.61.35Z"/><path class="cls-3" d="M89.38,25.52c-9.87,1-18.11,10.64-16.49,20.63a11.4,11.4,0,0,0,3.64,6.92,9,9,0,0,0,6.85,2.13c2.19-.28,5-1.81,4.69-4.4-.29-2.28-2.84-3.67-4.9-4-5.65-.89-11.12,2.18-15,6.11-4.22,4.31-7,9.78-10.58,14.55a49.86,49.86,0,0,1-24.2,16.87,50.87,50.87,0,0,1-29.35.89c-1.17-.33-2.33-.71-3.47-1.12-.61-.23-.87.74-.27,1a50.61,50.61,0,0,0,27.59,1.77A52.74,52.74,0,0,0,52.65,74.35a60.42,60.42,0,0,0,9.62-11.86c3.1-4.73,6.32-9.62,11.3-12.57a15.12,15.12,0,0,1,7.67-2.28,7.83,7.83,0,0,1,3.72.8,3.66,3.66,0,0,1,2.11,2.42c.2,1.3-.87,2.27-1.93,2.79a6.47,6.47,0,0,1-3.52.58,8.38,8.38,0,0,1-6.09-3.82c-2.75-4.25-2.22-10,0-14.31A18.35,18.35,0,0,1,86,27.22a16.25,16.25,0,0,1,3.38-.7c.64-.06.64-1.07,0-1Z"/></g></g></svg>