<svg xmlns="http://www.w3.org/2000/svg" viewBox="0 0 48.22 56.02"><defs><style>.cls-1{fill:#d3b8a3;}</style></defs><g id="Calque_2" data-name="Calque 2"><g id="Calque_1-2" data-name="Calque 1"><path class="cls-1" d="M23.67,30.73a40.29,40.29,0,0,1-5.91-11.4,40.68,40.68,0,0,1-1.5-6.16A24.89,24.89,0,0,1,15.9,7a6.93,6.93,0,0,1,2.39-5,4.46,4.46,0,0,1,4.54-.63c1.77.94,1.91,3.19,1.92,5,0,2.41,0,4.82-.06,7.23q-.07,8.36-.16,16.73a.51.51,0,0,0,1,.13c1.13-4.88,2.63-9.78,5.46-14a23.25,23.25,0,0,1,4.78-5.17,12.45,12.45,0,0,1,4.85-2.52,13.18,13.18,0,0,1,3.86-.36c.84,0,2.19.2,2.63,1.06.61,1.2-.9,2.81-1.57,3.62-1.6,1.95-3.27,3.83-5,5.66A101,101,0,0,1,27.64,30.12.51.51,0,0,0,28,31a17.87,17.87,0,0,1,13,1.69,10.4,10.4,0,0,1,3.53,2.81,3.21,3.21,0,0,1,.33,3.53A5.55,5.55,0,0,1,42,41.28c-2.81,1.08-6.14.7-9,0A49.1,49.1,0,0,1,22.6,36.92a.51.51,0,0,0-.74.57c.68,3.75,1.45,7.5,2,11.26.36,2.33.38,6.15-2.81,6.29-2.91.12-5.82-2.06-7.4-4.34a9.94,9.94,0,0,1-1.53-8.14,10.54,10.54,0,0,1,6.16-7.13.51.51,0,0,0-.13-1A33.85,33.85,0,0,1,7.23,31.88C4.71,30.82,1.07,29,1,25.82c-.05-2.59,2.44-4,4.69-4.47,2.91-.57,5.81.48,8.32,1.91a43.73,43.73,0,0,1,8.55,7c.46.45,1.17-.26.7-.71a46.48,46.48,0,0,0-8.4-7C12.12,21,9,19.8,5.73,20.33c-2.47.4-5.22,1.9-5.66,4.6-.54,3.29,2.33,5.7,5,7a34,34,0,0,0,13.15,3.47l-.14-1a11.58,11.58,0,0,0-6.47,6.64,10.84,10.84,0,0,0,.68,9.2,11.3,11.3,0,0,0,7.42,5.61A4.27,4.27,0,0,0,24,54.64a6.1,6.1,0,0,0,1.07-3.88,35,35,0,0,0-.86-5.93c-.46-2.54-.91-5.07-1.37-7.61l-.74.57a52,52,0,0,0,10.36,4.35c3.16.84,6.89,1.29,10,0,2.41-1,4.65-3.24,3.59-6a7.63,7.63,0,0,0-2.93-3.31,18.21,18.21,0,0,0-4.46-2.27,19,19,0,0,0-10.9-.5l.39.92A105.37,105.37,0,0,0,40.54,20.16c1.93-2,3.79-4.07,5.56-6.21,1-1.17,2.36-2.69,2.09-4.34C47.76,7,43.67,7.26,41.8,7.52c-4.15.57-7.51,3.24-10.14,6.38-3.88,4.61-5.76,10.47-7.11,16.25l1,.13.15-16.23c0-2.61.09-5.22.07-7.82,0-1.91-.25-4.08-1.85-5.35A4.85,4.85,0,0,0,19.18.39a6.35,6.35,0,0,0-3.62,3.72,13.81,13.81,0,0,0-.63,6.32,40.3,40.3,0,0,0,1.17,6.8,41.12,41.12,0,0,0,6.7,14c.38.51,1.25,0,.87-.51Z" transform="translate(0 0)"/><path class="cls-1" d="M21.62,34.14c0-1.09,1.3-2,2.9-2s2.89.89,2.89,2-1.3,2-2.89,2S21.62,35.23,21.62,34.14Z" transform="translate(0 0)"/></g></g></svg>