<svg xmlns="http://www.w3.org/2000/svg" viewBox="0 0 28.13 46"><defs><style>.cls-1{fill:none;stroke:#d3b8a3;stroke-miterlimit:10;}.cls-2{fill:#d3b8a3;}</style></defs><g id="Calque_2" data-name="Calque 2"><g id="Calque_1-2" data-name="Calque 1"><path class="cls-1" d="M.61,43h0L9.83,22.58a14.48,14.48,0,0,0,1.28-5.93V4.75H6.34a.23.23,0,0,1-.23-.23V4.05A3.55,3.55,0,0,1,9.66.5h9A3.37,3.37,0,0,1,22,3.87h0a.88.88,0,0,1-.88.88H17V16.42a15.35,15.35,0,0,0,1.37,6.36L27.53,43h0a9.62,9.62,0,0,1-6.47,2.5h-14A9.58,9.58,0,0,1,.61,43Z"/><path class="cls-2" d="M4.07,36.68a5.82,5.82,0,0,1,4.52-1.61c1.77.17,3.35,1.28,5.17,1.08a9.92,9.92,0,0,0,2.47-.86A5,5,0,0,1,18.87,35c1.71.24,3.36.82,5.1.47.63-.13.36-1.1-.26-1-1.81.37-3.59-.44-5.39-.56a5.57,5.57,0,0,0-2.55.43,5.93,5.93,0,0,1-2.8.75C11.16,35,9.6,34,7.74,34.06A6.81,6.81,0,0,0,3.36,36c-.46.45.25,1.15.71.7Z"/><path class="cls-2" d="M16.23,26.5h2.38a.51.51,0,0,0,.5-.5.51.51,0,0,0-.5-.5H16.23a.5.5,0,0,0,0,1Z"/><path class="cls-2" d="M15.86,23.5h1.37a.5.5,0,1,0,0-1H15.86a.5.5,0,0,0-.5.5.5.5,0,0,0,.5.5Z"/><path class="cls-2" d="M14.6,19.83a7.53,7.53,0,0,0,2,.08.52.52,0,0,0,.35-.14.53.53,0,0,0,.15-.36.51.51,0,0,0-.5-.5,7.08,7.08,0,0,1-.92,0l-.45,0-.22,0c-.11,0,.09,0,0,0l-.14,0a.59.59,0,0,0-.39.05.53.53,0,0,0-.23.3.51.51,0,0,0,.35.61Z"/><path class="cls-2" d="M14.86,18.12a3.27,3.27,0,0,0,1.63-.3.5.5,0,0,0,.23-.3.5.5,0,0,0,0-.38.46.46,0,0,0-.3-.23A.53.53,0,0,0,16,17l-.06,0,.12,0a3.46,3.46,0,0,1-.7.19l.14,0a3.22,3.22,0,0,1-.62,0,.49.49,0,0,0-.36.15.5.5,0,0,0-.14.35.46.46,0,0,0,.14.35.53.53,0,0,0,.36.15Z"/><path class="cls-2" d="M14.86,15.37l1.74.14a.5.5,0,0,0,.5-.5.51.51,0,0,0-.5-.5l-1.74-.14a.49.49,0,0,0-.5.5.51.51,0,0,0,.5.5Z"/><path class="cls-2" d="M15.1,12.71a2.46,2.46,0,0,1,.45-.11l-.13,0a1.88,1.88,0,0,1,.58,0l-.13,0,.1,0a.59.59,0,0,0,.39,0,.53.53,0,0,0,.23-.3.59.59,0,0,0-.05-.39.52.52,0,0,0-.3-.23,2.89,2.89,0,0,0-1.4.09.5.5,0,0,0-.35.62.52.52,0,0,0,.23.3.51.51,0,0,0,.38.05Z"/><path class="cls-2" d="M14.83,9a2.72,2.72,0,0,0,1.78,0,.5.5,0,0,0,.3-.23A.46.46,0,0,0,17,8.37.5.5,0,0,0,16.35,8a2.83,2.83,0,0,1-.5.13l.13,0a2.15,2.15,0,0,1-.62,0l.14,0a2.59,2.59,0,0,1-.4-.09.51.51,0,0,0-.62.35.53.53,0,0,0,.35.62Z"/><path class="cls-2" d="M15.1,7A4.92,4.92,0,0,1,16,6.7l.1,0h.08c-.09,0,0,0,.07,0h.1a4.17,4.17,0,0,1,.5,0,.51.51,0,0,0,.5-.5.51.51,0,0,0-.5-.5,5.15,5.15,0,0,0-2,.35.53.53,0,0,0-.3.23.46.46,0,0,0,0,.38A.5.5,0,0,0,15.1,7Z"/></g></g></svg>