<svg xmlns="http://www.w3.org/2000/svg" xmlns:xlink="http://www.w3.org/1999/xlink" viewBox="0 0 57.95 56.62"><defs><style>.cls-1{fill:none;}.cls-2{fill:#93725e;}.cls-3{fill:url(#Nouvelle_nuance_de_motif_1);}</style><pattern id="Nouvelle_nuance_de_motif_1" data-name="Nouvelle nuance de motif 1" width="107" height="107" patternTransform="translate(16.22 86.9) scale(0.48)" patternUnits="userSpaceOnUse" viewBox="0 0 107 107"><rect class="cls-1" width="107" height="107"/><rect class="cls-2" width="107" height="107"/></pattern></defs><g id="Calque_2" data-name="Calque 2"><g id="Calque_1-2" data-name="Calque 1"><path class="cls-3" d="M5.66,21.7A6.23,6.23,0,0,1,1,15.49c0-3.12,2.54-5.36,5.47-5.91a7.26,7.26,0,0,1,4.9.79.52.52,0,0,0,.69-.18,14.93,14.93,0,0,1,4.73-4.66A32.87,32.87,0,0,1,23,2.32C27.28.68,32.36.2,35.9,3.59a6.76,6.76,0,0,1,2.26,6,.51.51,0,0,0,.61.62,11.7,11.7,0,0,1,9.51,2.47,8.47,8.47,0,0,1,2.77,3.81,3.93,3.93,0,0,1-.62,4.11c-.52.51-1.18.86-1.45,1.57a4.54,4.54,0,0,0,.18,2.39,7.61,7.61,0,0,1-.72,4.55,10,10,0,0,1-7.34,5.47c-4.07.7-8.23-.86-11.49-3.24a.5.5,0,0,0-.73.3c-.68,3.78-4.76,5.07-8.11,5.12A14.72,14.72,0,0,1,15.18,36a4.64,4.64,0,0,1-3.13-3.84.5.5,0,0,0-.63-.48c-3,.9-7.53,2.05-9.61-1.17a4.58,4.58,0,0,1,.07-4.76,7,7,0,0,1,3.81-2.89A.5.5,0,0,0,6,22.23l0-.18c-.1-.63-1.07-.36-1,.27l0,.17.34-.61a8,8,0,0,0-4.35,3.26,5.69,5.69,0,0,0-.32,5.52,5.94,5.94,0,0,0,4.37,2.87,14.63,14.63,0,0,0,6.57-.91l-.64-.48a5.46,5.46,0,0,0,3,4.39,13.68,13.68,0,0,0,6.54,1.2c3.83,0,8.52-1.53,9.29-5.85l-.73.3A17,17,0,0,0,40,35.68a11.15,11.15,0,0,0,8.66-5A9.31,9.31,0,0,0,50.24,26a9.71,9.71,0,0,0-.3-2.52A1.33,1.33,0,0,1,50.27,22c.31-.31.69-.54,1-.86,2.39-2.55.53-6.54-1.57-8.59A12.79,12.79,0,0,0,38.51,9.21l.61.62c.78-4.43-2.86-8.4-7-9.46C27-1,21.47,1.51,17.14,4.13a17,17,0,0,0-6,5.55l.69-.18a8.51,8.51,0,0,0-9.6,1,7.11,7.11,0,0,0-1.17,9A6.61,6.61,0,0,0,5.4,22.67C6,22.79,6.29,21.83,5.66,21.7Z" transform="translate(-0.02)"/><path class="cls-3" d="M46.09,36.07a1.59,1.59,0,0,0-1.33.36,2,2,0,0,0-.65,1.08,2.15,2.15,0,0,0,1.16,2.32,3.17,3.17,0,0,0,2.62.21,1.88,1.88,0,0,0,1.29-2.22c-.36-1.25-1.68-1.64-2.82-1.84a.51.51,0,0,0-.61.35.51.51,0,0,0,.35.62,2.87,2.87,0,0,1,2,.82,1,1,0,0,1,.17.41.36.36,0,0,1,0,.16c0,.09,0-.05,0,0a.42.42,0,0,1,0,.15c0,.08,0-.06,0,0l-.05.09a.46.46,0,0,1-.09.12.92.92,0,0,1-.31.24,1.92,1.92,0,0,1-.74.23,2.1,2.1,0,0,1-.93-.13,1.93,1.93,0,0,1-.7-.42,1.31,1.31,0,0,1-.23-.32.84.84,0,0,1-.06-.14l0-.12v-.05a1.07,1.07,0,0,1,.05-.4.3.3,0,0,0,0-.1c0,.08,0,0,0-.06a.41.41,0,0,1,0-.09s.09-.13,0-.07a1,1,0,0,1,.18-.17s-.07,0,0,0l.13-.08s-.08,0,0,0l.12,0c.08,0-.11,0,0,0s.16,0,.07,0a.5.5,0,0,0,.27-1Z" transform="translate(-0.02)"/><path class="cls-3" d="M51.57,44.49A1.89,1.89,0,0,0,49.42,46a2.16,2.16,0,0,0,1.16,2.3,2.75,2.75,0,0,0,2.78-.2,3,3,0,0,0,1-1,1.25,1.25,0,0,0-.32-1.55A5.42,5.42,0,0,0,51,44.08c-.26,0-.5.25-.5.5a.52.52,0,0,0,.5.5,4.48,4.48,0,0,1,1.93.75,3.44,3.44,0,0,1,.36.28c.08.08.27.2.26.33s-.35.48-.5.61a2.53,2.53,0,0,1-.81.43,1.81,1.81,0,0,1-.83,0,1.5,1.5,0,0,1-.7-.4,1.18,1.18,0,0,1-.33-.62.89.89,0,0,1,.27-.76A1,1,0,0,1,51,45.5a.59.59,0,0,1,.21,0h.14a.5.5,0,0,0,.61-.35.5.5,0,0,0-.35-.61Z" transform="translate(-0.02)"/><path class="cls-3" d="M56.65,52.44a3,3,0,0,0-2.18,1.37,1.83,1.83,0,0,0,2.87,2.26,2,2,0,0,0,.43-2.31,2.06,2.06,0,0,0-2.33-1,.5.5,0,0,0-.35.61.51.51,0,0,0,.62.35l.12,0s.09,0,0,0a1.47,1.47,0,0,1,.21,0h.08c-.11,0,0,0,0,0l.24.07c.09,0,0,0,0,0l.09,0,.16.1c.11.06,0,0,0,0l.07.07.15.15c-.08-.09,0,0,0,0l0,.08,0,.09c0,.06,0-.11,0,0a1.29,1.29,0,0,0,0,.19c0,.06,0-.11,0,0a.56.56,0,0,1,0,.13v.08c0-.12,0,0,0,0a1.54,1.54,0,0,0,0,.17c-.05.13,0-.07,0,0l0,.08,0,.08-.05.07s0,0,0,0l-.13.14-.09.07c-.06.06.1,0,0,0l-.17.1s-.11,0,0,0l-.12,0-.11,0c-.07,0,.11,0,0,0h-.22c-.08,0,.11,0,0,0l-.1,0s-.14-.05-.08,0-.08,0-.09,0l-.11-.07c.06,0,0,0,0,0l-.1-.11s0,.07,0,0l0-.07s-.07-.15,0,0L55.21,55c0-.13,0,.06,0,0s0-.07,0-.11v-.09s0-.15,0-.07a.69.69,0,0,1,0-.07.29.29,0,0,0,0-.09s0-.07,0-.11a.64.64,0,0,0,0-.07s0,0,0,0a1.48,1.48,0,0,1,.61-.63,1.82,1.82,0,0,1,.43-.19,5.09,5.09,0,0,1,.56-.14.49.49,0,0,0,.35-.61.51.51,0,0,0-.61-.35Z" transform="translate(-0.02)"/></g></g></svg>