<svg xmlns="http://www.w3.org/2000/svg" xmlns:xlink="http://www.w3.org/1999/xlink" viewBox="0 0 92.14 42.44"><defs><style>.cls-1{fill:none;}.cls-2{fill:#93725e;}.cls-3{fill:url(#Nouvelle_nuance_de_motif_1);}</style><pattern id="Nouvelle_nuance_de_motif_1" data-name="Nouvelle nuance de motif 1" width="107" height="107" patternTransform="translate(62.67 43.18) rotate(63.13)" patternUnits="userSpaceOnUse" viewBox="0 0 107 107"><rect class="cls-1" width="107" height="107"/><rect class="cls-2" width="107" height="107"/></pattern></defs><g id="Calque_2" data-name="Calque 2"><g id="Calque_1-2" data-name="Calque 1"><path class="cls-3" d="M10.48,1Q29.77,7.3,48.79,14.41C59,18.24,69.4,22.23,78.43,28.52A50,50,0,0,1,91.21,41.06l.3-.74a35.77,35.77,0,0,1-11.79,1A53.32,53.32,0,0,1,68.2,38.94c-3.8-1.19-7.52-2.61-11.25-4L45.24,30.65,22.06,22.11,10.35,17.8c-3.14-1.15-6.76-2.2-8.42-5.37A7.89,7.89,0,0,1,3.1,3.32a8.08,8.08,0,0,1,9-1.6c.58.27,1.09-.59.51-.87A9.08,9.08,0,0,0,4.1,1.3,8.41,8.41,0,0,0,0,8.63a9,9,0,0,0,4.34,7.69,27.5,27.5,0,0,0,5,2.18l6.09,2.25,24.7,9.09c8.17,3,16.3,6.15,24.52,9A68,68,0,0,0,76.57,42a37.83,37.83,0,0,0,12.2,0c1-.18,2-.4,3-.65a.51.51,0,0,0,.3-.74c-6.19-9-15.44-15.12-25.15-19.77-4.9-2.34-10-4.35-15-6.27q-9.59-3.61-19.26-7Q21.74,3.63,10.75,0c-.61-.2-.88.77-.27,1Z" transform="translate(0 -0.01)"/><path class="cls-3" d="M75.23,26.53a11.87,11.87,0,0,1-4.41,14.18c-.54.35,0,1.21.51.86a12.86,12.86,0,0,0,4.87-15.3c-.24-.59-1.21-.33-1,.26Z" transform="translate(0 -0.01)"/><path class="cls-3" d="M13,2.09A13.43,13.43,0,0,1,6.69,17.48c-.56.31-.06,1.17.51.86A14.44,14.44,0,0,0,13.91,1.82a.5.5,0,0,0-1,.27Z" transform="translate(0 -0.01)"/><path class="cls-3" d="M12.58,9.77c2.38,1,4.76,1.94,7.15,2.9q7,2.82,14,5.61,8.36,3.34,16.72,6.62c5.11,2,10.22,4,15.36,5.91,3.28,1.22,6.57,2.51,9.93,3.49l.65.17a.5.5,0,0,0,.26-1c-3.05-.79-6-2-9-3.07-5-1.85-10-3.77-14.93-5.71-5.6-2.18-11.18-4.4-16.77-6.62q-7.26-2.89-14.53-5.83L13.22,9l-.37-.15c-.6-.24-.86.72-.27,1Z" transform="translate(0 -0.01)"/><path class="cls-3" d="M86.65,35.82a6.59,6.59,0,0,1,.23,5.67.51.51,0,0,0,.18.68.5.5,0,0,0,.68-.18,7.69,7.69,0,0,0-.22-6.67c-.3-.57-1.17-.07-.87.5Z" transform="translate(0 -0.01)"/></g></g></svg>