<svg xmlns="http://www.w3.org/2000/svg" xmlns:xlink="http://www.w3.org/1999/xlink" viewBox="0 0 113.87 117.53"><defs><style>.cls-1{fill:none;}.cls-2{fill:#93725e;}.cls-3{fill:#d3b8a3;}.cls-4{fill:url(#Nouvelle_nuance_de_motif_1);}</style><pattern id="Nouvelle_nuance_de_motif_1" data-name="Nouvelle nuance de motif 1" width="107" height="107" patternTransform="translate(33 -43)" patternUnits="userSpaceOnUse" viewBox="0 0 107 107"><rect class="cls-1" width="107" height="107"/><rect class="cls-2" width="107" height="107"/></pattern></defs><g id="Calque_2" data-name="Calque 2"><g id="Calque_1-2" data-name="Calque 1"><path class="cls-3" d="M13.62,2.24c1-1.43,3.08-1.3,4.59-1.17,1.84.16,4.26.64,4.85,2.71.55,1.9-1.67,3.62-3,4.56a13.94,13.94,0,0,1-5,2.15,13.26,13.26,0,0,1-6.2-.15.51.51,0,0,0-.49.84,69.48,69.48,0,0,0,9.4,8.91c.5.39,1.21-.31.71-.71a68.89,68.89,0,0,1-9.4-8.91l-.48.84A14.65,14.65,0,0,0,21.07,8.82c1.59-1.22,3.59-3.08,3-5.31S21,.4,19,.15,14.1-.26,12.76,1.74c-.36.53.5,1,.86.5Z" transform="translate(0)"/><path class="cls-3" d="M42.72,25.54c1-1.44,3.08-1.3,4.59-1.17,1.84.16,4.26.64,4.85,2.7.54,1.9-1.68,3.63-3,4.57a13.75,13.75,0,0,1-5,2.14A13.22,13.22,0,0,1,38,33.64a.5.5,0,0,0-.49.83,69,69,0,0,0,9.4,8.92c.5.39,1.21-.31.7-.71a68.81,68.81,0,0,1-9.39-8.91l-.49.83a14.6,14.6,0,0,0,12.47-2.49c1.6-1.22,3.59-3.07,3-5.3s-3-3.12-5.08-3.37S43.2,23,41.85,25c-.36.54.51,1,.87.51Z" transform="translate(0)"/><path class="cls-3" d="M32.93,17.85A58,58,0,0,0,28,26.4c-.27.58.6,1.09.87.51a57.84,57.84,0,0,1,4.9-8.55c.37-.54-.5-1-.86-.51Z" transform="translate(0)"/><path class="cls-3" d="M26.43,20.13l7.72,5.16c.54.36,1-.51.51-.86l-7.73-5.16c-.54-.36-1,.5-.5.86Z" transform="translate(0)"/><path class="cls-3" d="M59.06,43.26a53.85,53.85,0,0,0,8.86,6.36.5.5,0,0,0,.51-.86,52.4,52.4,0,0,1-8.66-6.21c-.49-.42-1.2.28-.71.71Z" transform="translate(0)"/><path class="cls-3" d="M57.31,47.3l7.15,5c.53.37,1-.5.51-.87l-7.15-5c-.53-.37-1,.49-.51.86Z" transform="translate(0)"/><path class="cls-3" d="M84.54,47.87a27.32,27.32,0,0,1-7.45,8.28c-.23.17-.38.56-.1.78L84.58,63a.52.52,0,0,0,.7,0,4.73,4.73,0,0,0,1.81-4.05.5.5,0,0,0-.93-.26,38.16,38.16,0,0,0-5,10.47.5.5,0,0,0,1,.27A37.46,37.46,0,0,1,87,59.19l-.93-.25a3.81,3.81,0,0,1-1.51,3.34h.7L77.7,56.23l-.1.78a28.44,28.44,0,0,0,7.81-8.64.5.5,0,0,0-.87-.5Z" transform="translate(0)"/><path class="cls-4" d="M4.7,73.77A62.78,62.78,0,0,0,0,97.12,60.49,60.49,0,0,0,.34,104a.5.5,0,0,0,1,.13c1.16-3.55,2.43-7.38,5.3-10,.73-.65,1.73-1.49,2.78-1.38a2.34,2.34,0,0,1,1.66,1.29c.9,1.54,1.06,3.41,1.56,5.1A27.7,27.7,0,0,0,15.7,106c.33.55,1.2,0,.86-.5a27,27,0,0,1-3.07-6.93c-.51-1.83-.7-3.88-1.86-5.46-2.84-3.85-7.17,1.5-8.58,4a38.37,38.37,0,0,0-2.7,6.69l1,.13A61.94,61.94,0,0,1,3.43,80.41,63.43,63.43,0,0,1,5.66,74c.24-.59-.72-.85-1-.26Z" transform="translate(0)"/><path class="cls-4" d="M16.92,80.64a3.18,3.18,0,0,1,2.95-.44l-.35-.61a15.31,15.31,0,0,1-3.72,6.84.5.5,0,0,0,0,.71,5.92,5.92,0,0,0,3.62,1.94c.63.09.9-.87.27-1a5.14,5.14,0,0,1-3.19-1.69v.71a16.39,16.39,0,0,0,4-7.29.52.52,0,0,0-.35-.61,4.1,4.1,0,0,0-3.72.54c-.52.38,0,1.24.5.86Z" transform="translate(0)"/><path class="cls-4" d="M31.32,105l7.18,0a.5.5,0,0,0,0-1l-7.18,0a.5.5,0,0,0,0,1Z" transform="translate(0)"/><path class="cls-4" d="M31.3,110.63l6.3.45c.64,0,.64-1,0-1l-6.3-.45c-.65,0-.64,1,0,1Z" transform="translate(0)"/><path class="cls-4" d="M62.53,100.16a9.33,9.33,0,0,0-8.07-1.53c-2.59.63-5.37,2.27-6.32,4.88a4.85,4.85,0,0,0,2.48,5.83,6.18,6.18,0,0,0,6.92-.47A10.32,10.32,0,0,0,61.15,101c0-.59-.8-.64-1-.13a9.55,9.55,0,0,0,10.53,12.7c.64-.09.37-1-.26-1a8.56,8.56,0,0,1-9.3-11.47l-1-.14a9.77,9.77,0,0,1-2.39,6.35,5.29,5.29,0,0,1-5.69,1.57c-1.85-.62-3.53-2.34-3.16-4.43.43-2.4,2.93-4,5.09-4.67a8.53,8.53,0,0,1,7.83,1.06c.5.4,1.21-.31.7-.7Z" transform="translate(0)"/><path class="cls-4" d="M66.89,92.92a.38.38,0,0,1,.36-.38,1.12,1.12,0,0,1,.72.1c.82.41.46,1.65.2,2.3a10.93,10.93,0,0,0-1.12,3,2.21,2.21,0,0,0,1,2.18,1.67,1.67,0,0,0,2.27-.32.5.5,0,1,0-.86-.51c-.35.46-1.13-.12-1.32-.45-.5-.85.21-2,.59-2.8a4.44,4.44,0,0,0,.6-3.11,1.93,1.93,0,0,0-1.68-1.38,1.5,1.5,0,0,0-1.76,1.12.51.51,0,0,0,.35.61.5.5,0,0,0,.61-.35Z" transform="translate(0)"/><path class="cls-4" d="M81.29,105a10.48,10.48,0,0,0-1,6.47.51.51,0,0,0,.62.35.52.52,0,0,0,.35-.62,9.26,9.26,0,0,1,.85-5.69c.28-.57-.58-1.08-.87-.51Z" transform="translate(0)"/><path class="cls-4" d="M75.08,108.21a23.64,23.64,0,0,1,11.41,1.49c.6.23.86-.73.27-1a24.25,24.25,0,0,0-11.68-1.52c-.64.07-.64,1.07,0,1Z" transform="translate(0)"/><path class="cls-4" d="M93.74,94.21a96.86,96.86,0,0,0-1.45,20.11.5.5,0,0,0,1,0c.41-3.41,4-5.75,7.26-5.61,1.78.08,3.89,1.07,4.47,2.88.73,2.3-2.17,3.94-4,4.5a9.34,9.34,0,0,1-7.37-.74.5.5,0,0,0-.5.86,10.31,10.31,0,0,0,7.57,1c2.24-.57,5.2-2.15,5.36-4.76.15-2.37-2.25-4.14-4.35-4.59a8.2,8.2,0,0,0-5.8,1,7.36,7.36,0,0,0-3.68,5.41h1A95.57,95.57,0,0,1,94.7,94.48c.12-.63-.85-.9-1-.27Z" transform="translate(0)"/><path class="cls-4" d="M107.21,99.46a3,3,0,0,1,3.2-.6l-.25-.43a5.18,5.18,0,0,1-3.07,4.63.51.51,0,0,0,.12.92l6,1.15c.63.12.9-.84.26-1l-6-1.16.12.92a6.18,6.18,0,0,0,3.56-5.5.5.5,0,0,0-.25-.43,4,4,0,0,0-4.41.75c-.46.45.25,1.16.71.71Z" transform="translate(0)"/></g></g></svg>