<svg xmlns="http://www.w3.org/2000/svg" viewBox="0 0 32.55 33.83"><defs><style>.cls-1{fill:#d3b8a3;}</style></defs><g id="Calque_2" data-name="Calque 2"><g id="Calque_1-2" data-name="Calque 1"><path class="cls-1" d="M23,31.59A46.74,46.74,0,0,1,13.53,29a37.58,37.58,0,0,1-8.16-4.34C3.27,23.08,1.1,20.8,1,18c-.07-2.13,1.11-4.71,3.32-5.33,2.89-.8,5.35,2.37,8.29,1.38a.51.51,0,0,0,.35-.35c.6-3.47,1.55-7.13,4-9.79,2.11-2.29,5.67-3.75,8.71-2.5,3.31,1.37,5,5.36,5.61,8.65a22.49,22.49,0,0,1-1,10.94A64,64,0,0,1,24.33,33.1a.5.5,0,0,0,.86.5c4.11-7,8.43-14.78,7.14-23.26-.55-3.55-2.26-7.61-5.54-9.45C23.73-.82,19.94.14,17.33,2.24,14,4.94,12.7,9.4,12,13.47l.35-.35c-1.44.49-2.86-.25-4.18-.79a6.55,6.55,0,0,0-4-.62C1.86,12.26.38,14.64.07,16.89c-.38,2.78,1.11,5.32,3.07,7.17a29.66,29.66,0,0,0,8.36,5.12,46.62,46.62,0,0,0,11.21,3.37c.63.11.9-.86.26-1Z" transform="translate(-0.01 -0.01)"/></g></g></svg>