<svg xmlns="http://www.w3.org/2000/svg" xmlns:xlink="http://www.w3.org/1999/xlink" viewBox="0 0 117.35 147.38"><defs><style>.cls-1{fill:none;}.cls-2{fill:#93725e;}.cls-3{fill:#d3b8a3;}.cls-4{fill:url(#Nouvelle_nuance_de_motif_1);}</style><pattern id="Nouvelle_nuance_de_motif_1" data-name="Nouvelle nuance de motif 1" width="107" height="107" patternTransform="translate(-14.39 150.42) scale(0.88)" patternUnits="userSpaceOnUse" viewBox="0 0 107 107"><rect class="cls-1" width="107" height="107"/><rect class="cls-2" width="107" height="107"/></pattern></defs><g id="Calque_2" data-name="Calque 2"><g id="Calque_1-2" data-name="Calque 1"><path class="cls-3" d="M19.1,103.13A69.36,69.36,0,0,1,35,76.87,72.27,72.27,0,0,1,60.43,59.64a68.08,68.08,0,0,1,7.23-2.41q1.84-.51,3.72-.9L73.17,56a4.11,4.11,0,0,1,2.14-.12c.7.28.88,1.16,1,1.81s.33,1.4.46,2.1a27.6,27.6,0,0,1,.44,4.44,33,33,0,0,1-1,8.69c-2.91,11.93-11.22,21.29-20.47,28.92-2.38,2-4.83,3.84-7.31,5.67q-1.87,1.4-3.78,2.77c-1.22.89-2.57,2.16-4.15,2.24a6.86,6.86,0,0,1-2.28-.38c-.82-.23-1.64-.47-2.45-.72q-2.34-.7-4.63-1.52-4.65-1.65-9.13-3.71-2.22-1-4.39-2.14c-.57-.29-1.07.57-.5.87a111.73,111.73,0,0,0,19.05,7.67c1.51.45,3.17,1.12,4.78.89s2.74-1.28,3.94-2.14c2.59-1.88,5.17-3.77,7.71-5.72C62.52,98,71.84,89,76.09,77a34.34,34.34,0,0,0,1.66-17.73c-.23-1.24-.42-3-1.34-3.9s-2.49-.58-3.69-.36A64.68,64.68,0,0,0,65,57,72.66,72.66,0,0,0,37.46,73a71.64,71.64,0,0,0-18,26.05c-.49,1.24-.94,2.5-1.35,3.77-.2.61.76.88,1,.27Z" transform="translate(-0.41 -0.62)"/><path class="cls-3" d="M19.18,105.12a23,23,0,0,0-7,9,86.37,86.37,0,0,0-4.86,12.28q-1.16,3.7-2,7.49c-.1.45.49.9.84.49a34.93,34.93,0,0,1,7.62-6.73l-.74-.56a41.23,41.23,0,0,0-3,20.45.51.51,0,0,0,.85.35,38.88,38.88,0,0,0,10.55-14.79l-1-.13c0,3.05-.05,6.11-.07,9.17,0,.39.58.7.86.35a83.24,83.24,0,0,0,13.23-23.69,28.62,28.62,0,0,0,1.19-3.6A1.89,1.89,0,0,0,35,112.9c-.58-.27-1.09.59-.51.86.75.35.06,1.84-.12,2.38-.32,1-.67,2-1,3q-1.09,3-2.41,5.81a81.7,81.7,0,0,1-6.08,10.94c-1.33,2-2.76,4-4.27,5.88l.85.36c0-3.06.05-6.12.07-9.17a.5.5,0,0,0-1-.14,37.92,37.92,0,0,1-10.3,14.35l.86.36A40.69,40.69,0,0,1,14,127.32c.17-.41-.39-.79-.74-.56a36.38,36.38,0,0,0-7.82,6.88l.84.49A92.11,92.11,0,0,1,10,121.63a53.27,53.27,0,0,1,5.28-11A17.74,17.74,0,0,1,19.68,106c.53-.37,0-1.24-.5-.87Z" transform="translate(-0.41 -0.62)"/><path class="cls-3" d="M59.94,64a17.91,17.91,0,0,0-4.15,3,6,6,0,0,0-2,3.75c-.16,2.92,2.92,3.95,5.28,4.17,2.94.28,6.59.22,8.67-2.21A4.43,4.43,0,0,0,68.85,69a5.4,5.4,0,0,0-2.12-3.14c-2.9-2.26-7.12-2.53-10.58-1.75-.63.15-.37,1.11.26,1a12.83,12.83,0,0,1,8.48.79c2,1,3.91,3.21,2.59,5.54-1.41,2.49-4.58,2.7-7.13,2.62-1.85-.06-4.88-.25-5.47-2.45-.39-1.45.65-2.88,1.62-3.85a17.48,17.48,0,0,1,3.94-2.82c.57-.3.06-1.17-.5-.86Z" transform="translate(-0.41 -0.62)"/><path class="cls-3" d="M28.35,109.58A118.57,118.57,0,0,1,49.27,81.09q3.54-3.56,7.36-6.8c.5-.42-.21-1.12-.7-.71a119.5,119.5,0,0,0-23.42,26.83c-1.79,2.81-3.47,5.71-5,8.67-.29.56.57,1.07.87.5Z" transform="translate(-0.41 -0.62)"/><path class="cls-3" d="M64.47,64.77a36.81,36.81,0,0,1,10.64-9.44.5.5,0,0,0-.5-.87,38.09,38.09,0,0,0-11,9.81c-.39.51.48,1,.86.5Z" transform="translate(-0.41 -0.62)"/><path class="cls-3" d="M38.43,71.88q-5.52,2.94-11,5.9a99.45,99.45,0,0,0-9.89,5.52,15.77,15.77,0,0,0-4,3.91.5.5,0,0,0,.29.73A23.52,23.52,0,0,0,24,89.7c.64,0,.64-1,0-1a22.89,22.89,0,0,1-10-1.72l.3.73c2.56-3.67,7-5.57,10.83-7.61l13.75-7.36c.57-.3.07-1.17-.5-.86Z" transform="translate(-0.41 -0.62)"/><path class="cls-3" d="M68.55,89.06c.37,7.09,1.24,14.14,1.61,21.22l.75-.43-13-8.86c-.53-.36-1,.51-.5.87l13,8.86a.51.51,0,0,0,.75-.44c-.37-7.08-1.24-14.13-1.61-21.22,0-.64-1-.64-1,0Z" transform="translate(-0.41 -0.62)"/><path class="cls-3" d="M22,97a73.58,73.58,0,0,0,33.89,6.06c.64,0,.64-1,0-1a73.09,73.09,0,0,1-26.24-3.25,75.8,75.8,0,0,1-7.15-2.67c-.58-.26-1.09.6-.5.86Z" transform="translate(-0.41 -0.62)"/><path class="cls-4" d="M36.28,30.84a22.16,22.16,0,0,1,1.21-7.74h-1c.63,1.89,1.45,4,3.09,5.22a4.27,4.27,0,0,0,2.71.89c1.34-.05,2.67-.76,4-.47L46,28a6.93,6.93,0,0,1-2.51,2.42.5.5,0,0,0-.1.78,16.06,16.06,0,0,1,4.31,5.34l.56-.74-3.4-1.06c-.77-.24-1.83-.78-2.62-.34s-.86,1.58-1,2.33c-.27,1.19-.51,2.39-.7,3.59l.84-.22a8,8,0,0,1-1.27-3,4.25,4.25,0,0,0-1.8-2.45c-1.9-1.08-4.33-.29-6.19.48l.57.73L36.18,31c.38-.52-.49-1-.86-.5-1.17,1.59-2.33,3.19-3.5,4.79-.24.33.17.9.57.73,1.63-.67,4.1-1.62,5.7-.39a4.7,4.7,0,0,1,1.34,2.6,6.2,6.2,0,0,0,1.24,2.55.5.5,0,0,0,.83-.22c.16-1,.34-1.92.55-2.88.09-.43.19-.87.3-1.31s.13-1,.46-1.12.84.12,1.14.21l1.36.43,2.73.85A.51.51,0,0,0,48.6,36a16.86,16.86,0,0,0-4.46-5.53l-.1.78a7.94,7.94,0,0,0,2.86-2.78.49.49,0,0,0-.3-.73c-2.12-.46-4.29,1.19-6.25-.15-1.55-1.07-2.3-3.09-2.86-4.8a.51.51,0,0,0-1,0,23,23,0,0,0-1.24,8c0,.64,1,.65,1,0Z" transform="translate(-0.41 -0.62)"/><path class="cls-3" d="M8.56,60.52a21.9,21.9,0,0,1,7.73-1.28L16,58.31c-1.7,1.26-3.62,2.83-4.15,5a4.33,4.33,0,0,0,.33,2.92c.49,1.05,1.37,2,1.49,3.18l.63-.49a6.83,6.83,0,0,1-3.08-1.61.51.51,0,0,0-.84.22,15.77,15.77,0,0,1-3.67,5.64l.86.36-.06-3.57c0-.8.17-2-.46-2.6s-2-.33-2.79-.25c-1.18.1-2.35.26-3.52.44l.57.74c1-1.78,3.41-2.17,4.15-4.21.82-2.28-.93-4.62-2.32-6.25l-.49.83,5.64,1.83c.61.2.88-.77.27-1L3,57.68c-.51-.16-.78.48-.48.84,1.24,1.44,3.11,3.86,1.79,5.8-1,1.44-2.89,1.88-3.78,3.44a.51.51,0,0,0,.57.74c.92-.15,1.84-.27,2.77-.37.55,0,2.4-.49,2.67.14a3.69,3.69,0,0,1,.06,1.2l0,1.3c0,.91,0,1.83,0,2.74a.5.5,0,0,0,.85.35,16.92,16.92,0,0,0,3.92-6.08l-.83.22a8.05,8.05,0,0,0,3.53,1.87.51.51,0,0,0,.63-.48c-.2-2-2.17-3.42-1.93-5.45s2.22-3.62,3.76-4.77a.5.5,0,0,0-.25-.93,22.92,22.92,0,0,0-8,1.31c-.6.22-.34,1.19.27,1Z" transform="translate(-0.41 -0.62)"/><path class="cls-3" d="M84.59,5.44a18,18,0,0,1,5.1-3.9L89,.86c-.76,1.61-1.56,3.55-1.06,5.35a3.68,3.68,0,0,0,1.4,2c.75.56,1.73.9,2.27,1.7l.3-.74a5.69,5.69,0,0,1-2.81,0c-.28-.07-.67.14-.63.48A13.17,13.17,0,0,1,88,15.22l.91-.12L87.5,12.54c-.33-.6-.65-1.52-1.39-1.73s-1.5.45-2.08.83c-.82.53-1.62,1.1-2.4,1.69l.75.44a7.83,7.83,0,0,1,1.06-2.72,3.28,3.28,0,0,0,.15-2.55C83,6.85,81.12,6,79.59,5.41v1l4.79-.85c.63-.12.37-1.08-.27-1l-4.79.86c-.54.1-.4.8,0,1,1.28.5,3.15,1.3,3.44,2.83a3.68,3.68,0,0,1-.66,2.32,5.32,5.32,0,0,0-.72,2.25.5.5,0,0,0,.75.43c.56-.43,1.14-.84,1.72-1.24l1-.65c.27-.17.64-.51,1-.46s.47.48.62.77l.53,1,1.12,2a.51.51,0,0,0,.92-.12,14.12,14.12,0,0,0,.5-5.85l-.63.48a6.71,6.71,0,0,0,3.33,0,.51.51,0,0,0,.3-.74c-.88-1.3-2.8-1.6-3.44-3.06s.16-3.52.84-4.95a.5.5,0,0,0-.69-.68,19,19,0,0,0-5.29,4.05c-.44.48.27,1.19.7.71Z" transform="translate(-0.41 -0.62)"/><path class="cls-4" d="M106.67,48.46a18,18,0,0,1-2.39-6l-.83.49c1.37,1.18,3.1,2.53,5,2.45a3.78,3.78,0,0,0,2.26-.94,7,7,0,0,1,2.11-1.61l-.64-.49a5.59,5.59,0,0,1-.74,2.71.51.51,0,0,0,.3.74A13.24,13.24,0,0,1,117,47.8l.12-.91-2.85.68c-.67.16-1.64.22-2,.88s0,1.56.25,2.22c.3.94.63,1.86,1,2.77l.62-.61A6.75,6.75,0,0,1,112,51.22a3.64,3.64,0,0,0-2.22-1c-1.92-.08-3.39,1.66-4.43,3l.93.25c.15-1.62.3-3.23.46-4.85.06-.64-.94-.63-1,0-.16,1.62-.31,3.23-.46,4.85,0,.55.67.6.93.25.89-1.19,2.42-3,4.13-2.45a5.53,5.53,0,0,1,1.75,1.33,4.88,4.88,0,0,0,1.79,1.12c.34.11.76-.25.62-.61-.26-.66-.51-1.32-.74-2l-.36-1.12c-.09-.3-.32-.75-.19-1s.6-.31.91-.39l1.07-.25,2.25-.54a.5.5,0,0,0,.12-.91,14.07,14.07,0,0,0-5.49-2l.3.74a6.72,6.72,0,0,0,.87-3.22.5.5,0,0,0-.63-.48c-1.45.48-2.19,2.11-3.68,2.46-1.75.4-3.51-1-4.73-2.1a.51.51,0,0,0-.84.49A19,19,0,0,0,105.81,49c.34.54,1.21,0,.86-.51Z" transform="translate(-0.41 -0.62)"/><path class="cls-3" d="M106,110.21a18,18,0,0,1,5.09-3.89l-.68-.69c-.76,1.61-1.56,3.55-1.07,5.36a3.68,3.68,0,0,0,1.41,2,8.2,8.2,0,0,1,2.26,1.69l.3-.73a5.65,5.65,0,0,1-2.8,0c-.29-.07-.68.15-.64.48a13.21,13.21,0,0,1-.47,5.59l.92-.12-1.42-2.57c-.33-.6-.65-1.51-1.39-1.73s-1.49.45-2.07.83c-.83.54-1.63,1.11-2.41,1.7l.75.43a7.72,7.72,0,0,1,1.07-2.71,3.35,3.35,0,0,0,.15-2.56c-.65-1.64-2.47-2.49-4-3.09v1l4.79-.86c.64-.11.37-1.08-.26-1l-4.79.85c-.54.1-.41.81,0,1,1.27.5,3.15,1.3,3.43,2.82a3.62,3.62,0,0,1-.66,2.32,5.32,5.32,0,0,0-.72,2.25.5.5,0,0,0,.75.43c.57-.42,1.14-.84,1.72-1.24l1-.65c.26-.17.63-.5.94-.46s.47.49.62.77l.53,1,1.12,2a.51.51,0,0,0,.92-.12,14,14,0,0,0,.5-5.85l-.63.49a6.75,6.75,0,0,0,3.34,0,.5.5,0,0,0,.29-.73c-.88-1.31-2.8-1.6-3.44-3.07s.17-3.52.84-4.94a.51.51,0,0,0-.68-.69,18.77,18.77,0,0,0-5.3,4.06c-.43.47.27,1.18.71.7Z" transform="translate(-0.41 -0.62)"/></g></g></svg>