<svg xmlns="http://www.w3.org/2000/svg" viewBox="0 0 76.59 82.19"><defs><style>.cls-1{fill:#d3b8a3;}</style></defs><g id="Calque_2" data-name="Calque 2"><g id="Calque_1-2" data-name="Calque 1"><path class="cls-1" d="M16.73,14.7C6,17-1.06,28.64.13,39.28,1.42,50.85,11.29,60.11,22.26,62.86a37.63,37.63,0,0,0,19.67-.67,44.07,44.07,0,0,0,17.53-9.7,21,21,0,0,0,5.41-7.82A21,21,0,0,0,66,35.31,25.26,25.26,0,0,0,57.44,19c-9.92-8.83-24.73-11.06-37.19-7.06a39.72,39.72,0,0,0-4.71,1.86c-.58.27-.07,1.13.51.86C27.74,9.18,42.28,9.82,53.14,17a26.28,26.28,0,0,1,11,14,20.07,20.07,0,0,1-2.55,17.7A28,28,0,0,1,54.67,55a47.11,47.11,0,0,1-8.61,4.66,39.62,39.62,0,0,1-18.9,3C16,61.6,5.29,54.14,2,43.19c-3-10,1.76-21.95,11.42-26.35A17.82,17.82,0,0,1,17,15.66c.63-.13.36-1.1-.27-1Z" transform="translate(0 0)"/><path class="cls-1" d="M33.31,8.31a1.72,1.72,0,0,1-.41-1.53A7.41,7.41,0,0,0,33,4.84c-.21-1.07-1.4-2.54-2.58-1.68a.5.5,0,0,0,.25.93l3,0a.5.5,0,0,0,0-1H30.14a.5.5,0,0,0-.49.43.49.49,0,0,0,.36.55,8.56,8.56,0,0,0,4.31-.48.5.5,0,0,0-.13-1,9.25,9.25,0,0,0-4.87,1c-.57.29-.07,1.16.5.86a8.28,8.28,0,0,1,4.37-.89l-.13-1a7.78,7.78,0,0,1-3.79.48l-.13,1h3.48v-1l-3,0,.25.93c.18-.12.23-.14.39-.07a1.2,1.2,0,0,1,.38.34A2,2,0,0,1,32,5.7c-.1,1.12-.36,2.48.61,3.31.48.42,1.19-.28.7-.7Z" transform="translate(0 0)"/><path class="cls-1" d="M34.2,65.38A20.82,20.82,0,0,0,36,72.7a.5.5,0,0,0,.93-.25,23.79,23.79,0,0,0-1-5.8.51.51,0,0,0-1,0,5.14,5.14,0,0,0,.38,4c.28.53,1,.14.91-.38-.29-1.64-.59-3.27-.88-4.9-.11-.59-.94-.39-1,.13a10.59,10.59,0,0,0,1.73,6.77.51.51,0,0,0,.94-.26,8.37,8.37,0,0,0-.85-4.2c-.23-.47-.91-.21-.93.26,0,.83-.07,1.66-.1,2.49,0,.64,1,.64,1,0,0-.83.07-1.66.1-2.49l-.93.25A7.35,7.35,0,0,1,36.05,72l.93-.25a9.76,9.76,0,0,1-1.6-6.26l-1,.14c.3,1.63.59,3.26.88,4.89l.92-.38a4.16,4.16,0,0,1-.27-3.24H35a22.19,22.19,0,0,1,1,5.53l.93-.25a19.66,19.66,0,0,1-1.69-6.82c0-.64-1-.64-1,0Z" transform="translate(0 0)"/><path class="cls-1" d="M34.33,74a10.76,10.76,0,0,1,4.2-1.57c.55-.09.43-1.06-.13-1l-3.77.49a.53.53,0,0,0-.48.37.5.5,0,0,0,.23.56,4,4,0,0,0,4,.06.5.5,0,0,0-.51-.86A2.94,2.94,0,0,1,34.88,72l-.25.93,3.77-.49-.14-1a11.44,11.44,0,0,0-4.43,1.68c-.54.35,0,1.21.5.86Z" transform="translate(0 0)"/><path class="cls-1" d="M33.38,3.63a30.47,30.47,0,0,1,22.83-.79A28.75,28.75,0,0,1,72.89,18.2a31,31,0,0,1,1,22.84C71,49,64.59,55.2,57.32,59.18c-3.26,1.79-6.68,3.27-9.87,5.18a20.38,20.38,0,0,0-7.6,7,14.75,14.75,0,0,0-1.07,2.4l.48-.37A14.74,14.74,0,0,0,24.87,81a.5.5,0,0,0,.3.73,26.64,26.64,0,0,0,19.54-4,25.3,25.3,0,0,0,4.43-3.7.51.51,0,0,0-.1-.78,11.78,11.78,0,0,0-13.47.3c-.5.38,0,1.25.51.86a10.81,10.81,0,0,1,12.45-.3l-.1-.78A25.65,25.65,0,0,1,31,81.18a24.38,24.38,0,0,1-5.59-.41l.3.73a13.79,13.79,0,0,1,13.53-7.08.53.53,0,0,0,.49-.37c1.21-3.54,4-6.12,7-8.1s6.75-3.63,10.13-5.41c7.45-3.94,14-9.94,17.36-17.81A31.75,31.75,0,0,0,74.5,19.5,29.65,29.65,0,0,0,58.72,2.77,31.93,31.93,0,0,0,35.53,1.68c-.9.32-1.79.68-2.66,1.08-.58.27-.07,1.13.51.87Z" transform="translate(0 0)"/><path class="cls-1" d="M23.57,12.37a10.67,10.67,0,0,0-3.65,2.85c-.81,1-1.74,2.39-.93,3.66a3.22,3.22,0,0,0,3,1.09,21.77,21.77,0,0,0,4.49-1.08L29,18.15c.25-.07,1-.42,1.25-.28s.29.8.42,1.06a2.93,2.93,0,0,0,2.63,1.42c1.47.06,2.72-.64,4.1-1a3,3,0,0,1,2.34.14c.6.37,1,1,1.72,1.2a3.14,3.14,0,0,0,2.37-.52A15,15,0,0,0,46,18.79a15.16,15.16,0,0,0,3.55-4c.34-.54-.52-1.05-.86-.5a14.22,14.22,0,0,1-2.78,3.26,13.37,13.37,0,0,1-1.67,1.24,4.58,4.58,0,0,1-2.22,1c-.64,0-1.1-.71-1.59-1.05a3.14,3.14,0,0,0-1.81-.55c-1.38,0-2.58.67-3.89,1-.89.22-2.27.33-2.94-.44-.35-.39-.28-.94-.56-1.37a1.31,1.31,0,0,0-1.42-.48c-1.54.28-3.08.86-4.59,1.28a11.92,11.92,0,0,1-3.89.78,1.92,1.92,0,0,1-1.47-.59c-.48-.68.08-1.53.49-2.09a9.91,9.91,0,0,1,3.73-3.06c.58-.28.07-1.14-.51-.86Z" transform="translate(0 0)"/><path class="cls-1" d="M25.32,62.07A10.67,10.67,0,0,0,25,57.72l-.74.57a9.94,9.94,0,0,0,5.09,1.26,12.7,12.7,0,0,0,5.12-1.48,6.59,6.59,0,0,1,2.69-.79c1,0,1.72.7,2.62,1.1,1.76.78,3.66.08,5.4-.39,1.46-.4,3.64-.64,4.51.92.31.56,1.17.06.86-.5A3.77,3.77,0,0,0,47,56.7c-1.81,0-3.46,1-5.26,1a5.05,5.05,0,0,1-2.76-1,4,4,0,0,0-2.52-.41c-1.88.3-3.45,1.53-5.29,2a8.87,8.87,0,0,1-6.38-.9A.51.51,0,0,0,24,58a9.87,9.87,0,0,1,.31,4.08c-.08.64.92.63,1,0Z" transform="translate(0 0)"/><path class="cls-1" d="M7.73,20.93a12.57,12.57,0,0,0-3,5.15,4.66,4.66,0,0,0,.57,4.23,2.89,2.89,0,0,0,1.89.9c.57.07,1.61-.05,2,.43s.05.91-.08,1.3a3.26,3.26,0,0,0-.25,1.26,1.68,1.68,0,0,0,.86,1.4c1.12.61,2.51.18,3.71.44.74.16,1.26.65,1,1.47a4.58,4.58,0,0,1-2.15,2.3c-1.61,1.07-3.4,2.07-4.2,3.94s.19,3.32.94,5a3.68,3.68,0,0,1,.39,1.44c0,.59-.23,1.16-.21,1.75a3.64,3.64,0,0,0,1.59,2.43L17,60c.48.43,1.18-.27.71-.71l-5.17-4.73-1.27-1.16a3.13,3.13,0,0,1-.95-1.13,3.35,3.35,0,0,1,.1-1.57,3.89,3.89,0,0,0,0-1.18c-.33-1.71-2-3.19-1.46-5,.58-2,2.7-2.95,4.27-4,1.23-.86,2.94-2.44,2.17-4.13-.55-1.23-2-1.34-3.16-1.36a6.33,6.33,0,0,1-1.74-.12c-.75-.24-.62-.9-.41-1.53a2.33,2.33,0,0,0,0-2.15,2.14,2.14,0,0,0-1.67-.81c-.78-.1-1.71,0-2.31-.62a3,3,0,0,1-.59-2.32,10.06,10.06,0,0,1,2.95-5.75c.44-.47-.26-1.18-.71-.71Z" transform="translate(0 0)"/><path class="cls-1" d="M26.32,23.64c-1.29.75-2.87.51-4.21,1.13a3,3,0,0,0-1.95,2.81c.15,1.21,1.27,1.65,2.25,2.05a1.92,1.92,0,0,1,1.3,1.13c.2.58.18,1.22.4,1.8a2.18,2.18,0,0,0,1.11,1.22,8.16,8.16,0,0,1,1.74.75c.92.8.66,2.44.66,3.52s.19,2.66,1.7,2.26a3.94,3.94,0,0,0,2.39-2.15,8.32,8.32,0,0,0,.72-3.41A17.85,17.85,0,0,0,32.36,33c0-.47-.09-1.27.32-1.6s1.52.29,2,.51a7.84,7.84,0,0,1,1.65,1.05,3.34,3.34,0,0,1,1,1.41,3.2,3.2,0,0,1-.21,1.83,1.39,1.39,0,0,0,.43,1.56,3.15,3.15,0,0,0,1.87.32,19.56,19.56,0,0,0,4.87-.71c.78-.23,1.56-.63,2.36-.79s1.31.58,1.72,1.22a25.27,25.27,0,0,0,2.07,3.06,4.08,4.08,0,0,0,3.24,1.61c.74,0,1.58-.43,2.23.1a4.86,4.86,0,0,1,1,1.5,3.4,3.4,0,0,0,2.78,2,3.17,3.17,0,0,0,3-1.59c.3-.57-.56-1.07-.87-.51a2.22,2.22,0,0,1-2.7,1c-1-.38-1.36-1.6-1.92-2.44a2.52,2.52,0,0,0-2.63-1.22,3.86,3.86,0,0,1-1.82,0,3.68,3.68,0,0,1-1.4-1,17.61,17.61,0,0,1-2-2.81c-.63-1-1.32-2.15-2.67-2a10.15,10.15,0,0,0-2.07.65,18.34,18.34,0,0,1-2.43.6A18.66,18.66,0,0,1,40,37c-.38,0-.76,0-1.14,0s-.83,0-.77-.6a10,10,0,0,0,.34-1.66,3.22,3.22,0,0,0-.5-1.5,6.73,6.73,0,0,0-2.55-2.15c-.88-.47-2.23-1.26-3.2-.63s-.86,1.85-.78,2.77c.15,2,.09,4.93-2,5.94-.38.19-.71.18-.78-.31a7.91,7.91,0,0,1,0-.84c0-.61,0-1.22,0-1.82a3.23,3.23,0,0,0-1.29-2.67c-.57-.37-1.34-.39-1.87-.8s-.53-1.18-.65-1.78a3.06,3.06,0,0,0-2.26-2.37c-.54-.22-1.33-.49-1.38-1.19s.64-1.36,1.22-1.67a6.93,6.93,0,0,1,2.25-.54,6.36,6.36,0,0,0,2.21-.71.5.5,0,0,0-.51-.86Z" transform="translate(0 0)"/><path class="cls-1" d="M26.34,24.42a2.53,2.53,0,0,1,2.88.06,18.51,18.51,0,0,1,2.44,2.08,12.14,12.14,0,0,0,5.16,2.6,12.36,12.36,0,0,0,5.8,0c1.23-.31,3.9-1.78,4.82-.3a.5.5,0,0,0,.78.1l1.7-1.81a5.1,5.1,0,0,0,1.19-1.54c.49-1.31-.79-2.26-.73-3.54a2.39,2.39,0,0,1,.76-1.64,15.93,15.93,0,0,0,1.61-1.23,1.6,1.6,0,0,0-.24-2.45c-.57-.3-1.07.56-.51.87,1,.54-1.19,1.77-1.51,2a3.38,3.38,0,0,0-1.11,2.59,3.34,3.34,0,0,0,.32,1.35c.24.52.69,1.09.46,1.68A5,5,0,0,1,49,26.67l-1.45,1.56.78.1c-.79-1.27-2.29-1.21-3.58-.89-.77.19-1.51.5-2.27.7a11.1,11.1,0,0,1-2.63.35,11.48,11.48,0,0,1-5.06-1.1A10.48,10.48,0,0,1,32.52,26c-.71-.58-1.34-1.27-2.06-1.84-1.38-1.08-3.36-1.67-4.83-.41-.49.42.22,1.12.71.7Z" transform="translate(0 0)"/></g></g></svg>