<svg xmlns="http://www.w3.org/2000/svg" xmlns:xlink="http://www.w3.org/1999/xlink" viewBox="0 0 34.22 43.27"><defs><style>.cls-1{fill:none;}.cls-2{fill:#93725e;}.cls-3{fill:url(#Nouvelle_nuance_de_motif_1);}</style><pattern id="Nouvelle_nuance_de_motif_1" data-name="Nouvelle nuance de motif 1" width="107" height="107" patternTransform="translate(-37 109)" patternUnits="userSpaceOnUse" viewBox="0 0 107 107"><rect class="cls-1" width="107" height="107"/><rect class="cls-2" width="107" height="107"/></pattern></defs><g id="Calque_2" data-name="Calque 2"><g id="Calque_1-2" data-name="Calque 1"><path class="cls-3" d="M19.91,29.56a12.71,12.71,0,0,1-6.7-6.25,8.06,8.06,0,0,1-.9-5.24,7.23,7.23,0,0,1,2.42-3.74A13.66,13.66,0,0,1,23.2,11a5.64,5.64,0,0,1,4.05,1.43A6.76,6.76,0,0,1,29,16.77c.31,4-1.34,7.64-3.18,11.07a.5.5,0,0,0,.86.5c-.12.18-.18.06,0,.11a2.88,2.88,0,0,1,.49.18,4.23,4.23,0,0,1,1.18.82,1.72,1.72,0,0,1,.62,1c0,.48-.51.7-.87.86-.52.22-.15,1.11.38.91,1.08-.4,1.56.56,1.83,1.46a9.78,9.78,0,0,1,.33,1.61,4.1,4.1,0,0,1,.11,1.25c-.09.37-.79.48-1,.88-.31.62.22,1.26.51,1.77s0,1.26-.15,1.79a1.47,1.47,0,0,1-1.29,1.3l.57.23A15.21,15.21,0,0,1,28,38.88c-.15-.63-1.09-.36-1,.27.05.27-.23.17-.47.14A5.85,5.85,0,0,1,25,38.83a4.6,4.6,0,0,1-1.15-.58c-.28-.23-.08-1-.07-1.42,0-1-.63-1.58-1.31-2.2a24.88,24.88,0,0,1-2.35-2.24,2.23,2.23,0,0,1-.63-1.14c0-.5.51-.75.9-.92.59-.26.08-1.12-.5-.86a1.87,1.87,0,0,0-1.14,2.68A10.75,10.75,0,0,0,21.46,35a8.16,8.16,0,0,1,1.19,1.16c.38.51.05,1.28.12,1.92.12,1.13,1.64,1.58,2.56,1.89s3,.61,2.65-1.12l-1,.27A16.1,16.1,0,0,0,28.53,43a.54.54,0,0,0,.57.23C30.51,43,31,42,31.2,40.66A2.83,2.83,0,0,0,31.29,39a6,6,0,0,0-.44-.78c-.22-.39-.22-.33.13-.54a1.23,1.23,0,0,0,.77-1.14,8.79,8.79,0,0,0-.11-1.25,8.2,8.2,0,0,0-.8-2.95,2.05,2.05,0,0,0-2.62-1.08l.38.91c4-1.7-1.71-6-2.77-4.34l.86.5c1.85-3.45,3.5-7.09,3.35-11.09a8.64,8.64,0,0,0-1.51-4.89,6.05,6.05,0,0,0-4.11-2.3c-3.33-.45-7,1-9.65,3a9.13,9.13,0,0,0-3.1,3.78,7.78,7.78,0,0,0,.08,5.6,13.77,13.77,0,0,0,7.89,8.12c.6.24.86-.73.27-1Z"/><path class="cls-3" d="M14.94,20.73A22,22,0,0,0,18.8,24.4a.5.5,0,0,0,.68-.18.52.52,0,0,0-.18-.69A21.22,21.22,0,0,1,15.65,20a.5.5,0,0,0-.71.7Z"/><path class="cls-3" d="M22.65,17.5v6.33a.5.5,0,0,0,1,0V17.5a.5.5,0,0,0-1,0Z"/><path class="cls-3" d="M15,20.52A13.86,13.86,0,0,1,22.15,18c.64-.05.64-1.05,0-1a14.9,14.9,0,0,0-7.64,2.69c-.52.37,0,1.24.5.87Z"/><path class="cls-3" d="M.48,15.32A32.11,32.11,0,0,1,6.34,16c.63.13.9-.83.27-1a33.32,33.32,0,0,0-6.13-.73c-.64,0-.64,1,0,1Z"/><path class="cls-3" d="M12.17,3.81l3,3a.52.52,0,0,0,.71,0,.5.5,0,0,0,0-.71l-3-3a.5.5,0,0,0-.71,0,.52.52,0,0,0,0,.71Z"/><path class="cls-3" d="M26.38.24a7.6,7.6,0,0,0-.73,3.92.51.51,0,0,0,.5.5.5.5,0,0,0,.5-.5A6.66,6.66,0,0,1,27.24.75a.51.51,0,0,0-.18-.69.51.51,0,0,0-.68.18Z"/><path class="cls-3" d="M33.37,4.07a17.15,17.15,0,0,0-2.66,4.64.5.5,0,0,0,.35.62A.51.51,0,0,0,31.67,9a15.54,15.54,0,0,1,2.41-4.2.52.52,0,0,0,0-.71.51.51,0,0,0-.71,0Z"/></g></g></svg>