<svg xmlns="http://www.w3.org/2000/svg" viewBox="0 0 23.62 19.64"><defs><style>.cls-1{fill:#d3b8a3;}</style></defs><g id="Calque_2" data-name="Calque 2"><g id="Calque_1-2" data-name="Calque 1"><path class="cls-1" d="M1.26,7.75A16,16,0,0,0,2.34,9.39c.38.65.75,1.31,1.09,2a35.89,35.89,0,0,1,1.82,4.11c.3.8.57,1.61.82,2.44a.13.13,0,0,0,.22.05c1.67-1.4,3.38-2.88,5.53-3.45a8.57,8.57,0,0,1,1.94-.28c.17,0,.17-.28,0-.27a9,9,0,0,0-3.32.76A13.75,13.75,0,0,0,7.7,16.47c-.54.43-1.07.88-1.6,1.33l.23.05A38.67,38.67,0,0,0,2.72,9.52a8.74,8.74,0,0,0-.62-1,5.22,5.22,0,0,1-.61-.94c-.07-.16-.3,0-.23.13Z"/><path class="cls-1" d="M1.44,7.8A26,26,0,0,1,4.6,6.54c.53-.17,1.07-.33,1.61-.46L7,5.88a1.6,1.6,0,0,1,.84,0,1.54,1.54,0,0,1,.58.46L9,7q.53.63,1,1.29c.66.88,1.28,1.78,1.86,2.71s1.26,2.12,1.82,3.22c.07.15.3,0,.23-.13a37.69,37.69,0,0,0-3.59-5.81c-.33-.45-.68-.9-1-1.33l-.54-.65a2.73,2.73,0,0,0-.52-.5,1.83,1.83,0,0,0-1.52-.07c-.57.13-1.14.28-1.7.45A26.32,26.32,0,0,0,1.31,7.57c-.16.07,0,.3.13.23Z"/><path class="cls-1" d="M8.05,5.87a35.24,35.24,0,0,1,6.33-4.68,15,15,0,0,1,2-.92c.16-.06.09-.32-.07-.26A24.32,24.32,0,0,0,9.57,4.22c-.58.47-1.15,1-1.71,1.46-.13.11.06.3.19.19Z"/><path class="cls-1" d="M16.25.23c2.29,2.1,3.82,4.81,5.43,7.42.46.74.93,1.48,1.43,2.2.1.14.33,0,.23-.13C21.58,7.18,20.2,4.39,18.25,2A17.47,17.47,0,0,0,16.44,0c-.13-.11-.32.08-.19.19Z"/><path class="cls-1" d="M23.31,9.92c-.07-.08-.22-.07-.32-.06a2.94,2.94,0,0,0-.59.12,17.63,17.63,0,0,0-1.86.62,37.29,37.29,0,0,0-4.74,2.13A12.06,12.06,0,0,0,13.75,14c-.13.11.05.3.19.19a10.87,10.87,0,0,1,1.69-1.1c.74-.41,1.5-.78,2.27-1.13a32.44,32.44,0,0,1,4.26-1.67,6.31,6.31,0,0,1,.72-.18l.2,0h.05s0,0,0,0c.11.14.3,0,.19-.19Z"/><path class="cls-1" d="M0,7.9a23.18,23.18,0,0,1,4.73,8.84,24.17,24.17,0,0,1,.59,2.81.14.14,0,0,0,.23.06A14,14,0,0,1,12.22,16c.65-.15,1.32-.2,2-.36a4.83,4.83,0,0,0,1.75-.92c.53-.4,1-.81,1.61-1.18s1.13-.69,1.72-1A18.45,18.45,0,0,1,23.52,11a.14.14,0,0,0,.1-.16l-.21-1.1c0-.17-.29-.1-.26.07l.21,1.1.09-.17a18.42,18.42,0,0,0-7.22,3.41,6.84,6.84,0,0,1-1.71,1.1,12.47,12.47,0,0,1-2,.41,14.26,14.26,0,0,0-7.11,3.73l.22.06A23.35,23.35,0,0,0,2,10,21.56,21.56,0,0,0,.22,7.71c-.11-.13-.3.06-.19.19Z"/><path class="cls-1" d="M10.29,6.15A15.91,15.91,0,0,1,14.55,3.6c.16-.07.09-.32-.07-.26A16.38,16.38,0,0,0,10.1,6c-.13.11.06.3.19.19Z"/><path class="cls-1" d="M11.14,7.11A20.08,20.08,0,0,1,17,4.28.13.13,0,0,0,16.88,4,20.5,20.5,0,0,0,11,6.88c-.14.1,0,.33.13.23Z"/><path class="cls-1" d="M12.25,8.08a19.75,19.75,0,0,1,6.06-2.92c.16,0,.09-.3-.08-.25a20,20,0,0,0-6.12,2.94c-.14.1,0,.33.14.23Z"/><path class="cls-1" d="M12.65,9.2A22,22,0,0,1,19,6.4a.14.14,0,0,0-.07-.26A22.49,22.49,0,0,0,12.51,9c-.14.09,0,.32.14.23Z"/><path class="cls-1" d="M7,7.61l-1.89,1c-.15.08,0,.31.14.23l1.88-1c.16-.08,0-.31-.13-.24Z"/><path class="cls-1" d="M8.25,8.27a8.37,8.37,0,0,0-3.74,2c-.13.12.06.31.19.19A7.93,7.93,0,0,1,8.32,8.53c.17,0,.1-.3-.07-.26Z"/><path class="cls-1" d="M8.73,9a8,8,0,0,0-3,1.95A.13.13,0,0,0,6,11.1,7.63,7.63,0,0,1,8.8,9.22C9,9.16,8.89,8.9,8.73,9Z"/><path class="cls-1" d="M9.66,10.21a7.51,7.51,0,0,0-3.73,2.58c-.1.14.13.27.23.14a7.14,7.14,0,0,1,3.57-2.46c.16-.05.09-.31-.07-.26Z"/></g></g></svg>