<svg xmlns="http://www.w3.org/2000/svg" viewBox="0 0 19.02 38.36"><defs><style>.cls-1{fill:#93725e;fill-rule:evenodd;}</style></defs><g id="Calque_2" data-name="Calque 2"><g id="Calque_1-2" data-name="Calque 1"><path class="cls-1" d="M3,0H3S3,0,3,0Z"/><path class="cls-1" d="M3.08,0s0,0,0,0H3S3.05,0,3.08,0Z"/><path class="cls-1" d="M5.43,5.28h0v.06h0Z"/><path class="cls-1" d="M5.42,5.79v0S5.4,5.79,5.42,5.79Z"/><path class="cls-1" d="M5.3,7.83h0s0,0,0,0Z"/><path class="cls-1" d="M5.22,18.49s0,0,0,0S5.21,18.49,5.22,18.49Z"/><path class="cls-1" d="M6.83,30.25v0l0,0a.37.37,0,0,0-.16.09.24.24,0,0,0-.09,0,0,0,0,0,0,0,0,4.47,4.47,0,0,0-.92.35s0,0,0,0a2.2,2.2,0,0,0-.46.23L5,31s0,0,0,0,0,0-.07,0c0,.2,0,.4,0,.61h0v.08s0,.07,0,.07,0,0,0,0,0,0,0,0h0v.06s0,.09,0,.11,0,.16,0,.2a1.17,1.17,0,0,0,0,.27s0,0,0,0,0,.25,0,.33a.11.11,0,0,1,0,.08v0a.33.33,0,0,0,0,.14v0s0,.1,0,.13,0,0,0,0a.41.41,0,0,1,0,.22,2.08,2.08,0,0,1,0,.25s0,.06,0,.07l0,0c0,.24,0,.51,0,.76a.64.64,0,0,1,0,.2.22.22,0,0,1,0,.16c0,.15,0,.38,0,.49s0,0,0,.08h0v.05h0c0,.07,0,.1,0,.13V36s0,0,0,0,0,0,0,0,0,.28,0,.42,0,0,0,.06a.17.17,0,0,1,0,.15s0,.13,0,.16,0,.09,0,.14,0,.26,0,.36l0,0a.81.81,0,0,1,0,.32c.06.05,0,.2,0,.28s0,.11,0,.17a.24.24,0,0,1,0,.09s0,0-.07,0a.09.09,0,0,1,0,.06s0,0,0,0h0s0,0,0,0-.08,0-.12.07,0,0,0,0,0,0,0,0,0,0,0,0a.1.1,0,0,1,0,0h0s0,0,0,.06,0,0-.07,0a.36.36,0,0,0,0-.11s0,0,0,0,0,0-.06,0,0,0,0-.09,0-.27-.06-.37,0,0,0,0a1.36,1.36,0,0,0,0-.29.15.15,0,0,1,0-.09l0,0c0-.21,0-.4,0-.64a.09.09,0,0,1,0-.12.84.84,0,0,1,0-.36s0-.07,0-.1a0,0,0,0,0,0,0s0-.11,0-.12,0-.11,0-.14,0,0,0,0,0,0,0,0,0,0,0,0-.05,0,0-.06,0-.1,0-.1,0,0,0-.06,0-.06,0-.06a.09.09,0,0,0,0-.07s0-.07,0-.07,0-.14,0-.21,0-.13,0-.15a1.09,1.09,0,0,0,0-.37s0,0,0,0,0,0,0,0v-.15a.12.12,0,0,1,0-.13v-.86s0,0,0,0,0-.11,0-.16,0,0,0,0v-.06s0,0,0,0a1.15,1.15,0,0,0,0-.19s0-.06,0-.08,0,0,0,0h0s0,0,0,0,0-.11,0-.13,0-.1,0-.12,0,0,0,0,0-.16,0-.24,0-.05,0-.07,0-.16,0-.25,0,0-.05,0,0,0,0,0l.06-.07a1.07,1.07,0,0,0,0-.4l0,0c0-.17,0-.42.06-.6s0-.07,0-.09,0,0,0,0a.28.28,0,0,1,0-.18h0c0-.08,0-.22,0-.28s-.08-.18-.13-.26a.46.46,0,0,0-.2.17s-.05,0-.05,0-.1.08-.15.12a1.11,1.11,0,0,0-.07.16c0,.11-.08.2-.06.32s0,.1,0,.14,0,0,0,0,0,.13,0,.18,0,.17,0,.26v.25a.84.84,0,0,1,0,.28c0,.08,0,.22,0,.28s0,0,0,0a5.51,5.51,0,0,1-.1.92c-.06.22-.08.44-.15.68a1,1,0,0,1-.07.29s0,.08,0,.12a2.33,2.33,0,0,0-.08.36.14.14,0,0,1,0,.11c0,.09,0,.21,0,.3a.31.31,0,0,0,0,.21s0,.13,0,.17,0,.12,0,.18,0,0,0,0l.19.35s0,0,0,0,.15.15.16.27,0,.06,0,.08a.52.52,0,0,1-.06.13s-.06,0-.07,0a2.49,2.49,0,0,1-.32.08H3.11a.89.89,0,0,0-.23,0s-.08,0-.1,0,0,0,0,0a1.15,1.15,0,0,0-.33,0s0,0-.06,0-.08,0-.12,0-.11,0-.16,0h0a2.54,2.54,0,0,0-.29,0,.51.51,0,0,0-.13,0c-.06,0-.09,0-.16,0H1.37a1.06,1.06,0,0,1-.19,0s-.06,0-.09,0-.09,0-.12,0-.24,0-.34,0H.47a.16.16,0,0,0-.1,0s-.08,0-.1-.06-.08-.06-.15-.06-.08,0-.08-.11H0s0,0,0,0,0-.06.07-.06l.1-.15s.08-.06.15,0a.33.33,0,0,0,.14,0h0s.12,0,.15-.06h0c.1-.06.2-.06.31-.12a4.56,4.56,0,0,0,.59-.2l0,0s0,0,.07,0a1.1,1.1,0,0,0,.2-.23h0a1.42,1.42,0,0,0,.2-.28.26.26,0,0,0,.07-.1A.36.36,0,0,0,2.21,35a2.44,2.44,0,0,0,0-.47,0,0,0,0,1,0,0c0-.4,0-.89,0-1.25a3.58,3.58,0,0,0,0-.45,2.79,2.79,0,0,0,0-.5,1.64,1.64,0,0,1,0-.22.57.57,0,0,1,0-.13,2.19,2.19,0,0,1,0-.27s0,0,0-.05,0-.11,0-.16a2.73,2.73,0,0,0-.05-.4s0,0,0,0,0-.07,0-.09,0-.28,0-.39a1.48,1.48,0,0,1,0-.47c0-.24,0-.47,0-.68,0,0,0-.07.05-.09s0,0,0,0,0,0,0,0,.2-.14.29-.22A.27.27,0,0,0,2.49,29a.88.88,0,0,0,.22-.1c.06,0,.1,0,.16,0a.07.07,0,0,1,.06,0s0,0,0,0H3s0,0,0,0h0a1.53,1.53,0,0,0,.27-.17c.05,0,.07,0,.12-.05s-.07-.16-.11-.23a.36.36,0,0,0-.08-.2c0-.07-.07-.15,0-.25s0,0,.1,0,.16-.07.23-.12a.74.74,0,0,0,.26-.1,1.94,1.94,0,0,1-.21-.29s0,0,0,0,0-.06,0-.07-.08-.12-.11-.19l0,0c-.06-.15-.17-.28-.24-.42s0,0,0,0,0-.08-.05-.1,0-.05,0-.08a.09.09,0,0,1,0-.05,2.1,2.1,0,0,0-.15-.3.08.08,0,0,0,0-.07,1.27,1.27,0,0,0-.13-.32,1,1,0,0,0-.06-.2s0,0,0,0c-.11-.3-.26-.56-.36-.86,0,0,0,0,0,0s0,0,0-.05-.16-.26-.08-.42a0,0,0,0,0,0-.05s0,0,.06,0,.09-.12.14-.18a.52.52,0,0,0,.11-.1s0-.05.05-.05v0a.38.38,0,0,0,.12-.1,1,1,0,0,0,.21-.2A.13.13,0,0,1,3,23.31c0-.07.1-.1.13-.17a.2.2,0,0,0,.08-.1s0,0,0,0l.11-.13,0,0s.06-.09.1-.13.09-.07.11-.13.16-.22.25-.31v0a.12.12,0,0,0,.07-.1H4a2.43,2.43,0,0,0,.2-.25.1.1,0,0,0,.06-.08s0,0,0,0l.39-.48a2,2,0,0,0,0-.26,2,2,0,0,0,0-.35s0,0,0,0c0-.52-.1-1-.07-1.55,0,0,0,0,0,0s0-.1,0-.12a.12.12,0,0,0,0-.1c0-.06,0-.17,0-.23s0,0,0-.05,0-.11,0-.16,0,0,0,0c0-.2,0-.35,0-.56h0s0-.06,0-.08,0-.11,0-.16,0-.05,0-.1c0-.73,0-1.57-.07-2.32,0,0,0-.14,0-.21a.14.14,0,0,0,0-.11c0-.18,0-.4,0-.56s0-.05,0-.07a2.28,2.28,0,0,1,0-.37h0s0,0,0,0,0,0,0,0,0-.21,0-.32,0,0,0,0v0h0a.06.06,0,0,0,0-.06s0,0,0,0h0v-.16h0s0-.07,0-.07,0-.09,0-.09v-.11s0,0,0,0a.85.85,0,0,1,0-.16.25.25,0,0,0,0-.07s0-.07,0-.11,0-.06,0-.1,0-.06,0-.07,0,0,0,0,0-.06,0-.08,0-.28,0-.39,0-.06,0-.11,0,0,0,0,0,0,0,0,0,0,0-.06,0,0,0,0a3.09,3.09,0,0,1,0-.45h0s0-.07,0-.07,0-.14,0-.15a1,1,0,0,1,0-.24s0-.12,0-.14,0,0,0,0,0,0,0-.06,0-.07,0-.1,0,0,0,0a.44.44,0,0,0,0-.23s0-.11,0-.16,0,0,0-.05,0,0,0,0,0-.21,0-.29,0,0,0,0,0-.09,0-.13,0,0,0-.09,0,0,0,0a.06.06,0,0,0-.05-.06c0-.07,0-.14,0-.2s0-.05,0-.05V9s0,0,0,0,0-.11,0-.16h0s0,0,0-.06,0,0,0,0h0a2.72,2.72,0,0,0,0-.28v0s0-.08,0-.09,0-.07,0-.07,0,0,0,0V8a.06.06,0,0,1,0,0s0,0,0,0a.17.17,0,0,1,0-.09,3.23,3.23,0,0,1,0-.44l0,0a2,2,0,0,0,0-.25s0,0-.06,0,0,0,0,0-.12,0-.2,0,0,0,0,0-.07,0-.13,0S4.16,7,4.15,7,4,6.94,4,6.89s-.05,0-.06,0,0,0,0,0a.3.3,0,0,1-.1,0v0s-.11,0-.12-.06-.07,0-.12,0,0,0,0,0-.08,0-.09,0-.09,0-.11-.07,0,0-.09,0-.08,0-.09-.08-.05,0-.1,0v0C3,6.42,3,6.35,3,6.35s0,0,0,0-.05,0-.08,0-.08-.09-.12-.14v0c.09,0,.06-.14,0-.16s0,0,0,0,.06,0,.1,0V5.63h0a.4.4,0,0,0,0-.2c0-.13,0-.24,0-.38h0s0-.1,0-.12,0-.07,0-.11h0c0-.16,0-.36,0-.53,0,0,0,0,0-.06s0-.22,0-.31,0,0,0,0a1,1,0,0,0,0-.25s0,0,0,0,0-.06,0-.06,0,0,0,0,0,0,0,0V3.38h0a2.4,2.4,0,0,1,0-.28s0-.06,0-.08,0-.08,0-.12h0c0-.11,0-.2,0-.32h0c0-.12,0-.25,0-.37s0-.1,0-.18,0,0,0,0,0,0,0,0a.24.24,0,0,0,0-.12s0,0,0-.05,0,0,0,0a.54.54,0,0,0-.15,0c0-.05-.08-.05-.14-.06s-.08,0-.12-.06,0,0-.07,0S2.07,1.51,2,1.49A.06.06,0,0,0,2,1.44a0,0,0,0,0,0-.06s0-.1.06-.16H2c0-.09,0-.11,0-.17S2.1,1,2.1,1s0,0,0-.07,0-.07.09-.08.08-.09.09-.17h0s0-.05,0-.07h0c0-.06,0,0,0-.11h0s0-.08,0-.12h0c0-.06,0-.08,0-.14l.06,0v0s0,0,.05,0S2.73,0,2.78.06s0,0,.05,0,0,0,0,.05,0,0,.05,0,0,0,0,0,.15,0,.18,0,0,0,0,0,0,.09.06.13,0,0,0,0,0,.07,0,.08,0,.11,0,.13,0,0,0,0,0,.07,0,.09,0,.08,0,.14,0,0,0,0,0,.08,0,.08h0c0,.07,0,.13,0,.2s0,.11.06.16,0,0,0,0a.38.38,0,0,1,.07.18s0,0,0,0,0,.09,0,.12,0,.1,0,.1a.08.08,0,0,0,0,.08s0,.05,0,.1a.11.11,0,0,1-.06,0l-.06,0s0,.06,0,.11l0,0a.81.81,0,0,0,0,.22.31.31,0,0,1,0,.1s0,.07,0,.11,0,0,0,0,0,.36,0,.47,0,0,0,0,0,0,0,0a2.75,2.75,0,0,1,0,.4s0,.1,0,.15,0,0,0,0,0,.13,0,.18,0,.33,0,.48,0,.09,0,.12,0,.14,0,.19,0,0,0,0,0,.07,0,.09,0,.29,0,.43a1.67,1.67,0,0,0,0,.39s0,0,0,0a1.45,1.45,0,0,0,0,.36s0,0,0,.05,0,0,.08,0V6l.14,0s0,0,0,0l.09,0s0,0,0,0,.09,0,.1.08H4c0,.06.11,0,.14.11s0,0,0,0,0,0,.07.06.07,0,.13,0v0c.08,0,.08.06.17,0a.08.08,0,0,0,0,0s0,0,.07,0,0,0,0,0A1.47,1.47,0,0,1,4.7,6s0,0,0,0,0-.16,0-.21,0,0,0,0,0,0,0-.07a1.42,1.42,0,0,0,0-.3s0,0,0,0,0-.3,0-.45v0s0-.09,0-.11,0-.12,0-.18,0,0,0,0,0-.1,0-.1,0,0,0,0h0c0-.11,0-.23,0-.33s0-.18,0-.26,0,0,0,0a.05.05,0,0,0-.05,0c0-.05-.07,0-.1,0a.24.24,0,0,1-.08.06c0-.06,0-.08,0-.11s0,0,0,0,0,0,0,0H4.47s0-.13-.07-.12,0-.1,0-.12V3.44h0V3.37s0-.06,0-.09,0,0,0-.09,0,0,0,0v0s0-.12,0-.14,0-.12,0-.2,0-.06,0-.09h0a0,0,0,0,0,0,0h0s0,0,0-.06a.57.57,0,0,0,0-.16h0c0-.08,0-.11,0-.19a.08.08,0,0,0,0,0c0-.06,0-.08,0-.13h0c0-.05,0-.07,0-.12a.33.33,0,0,0,.06-.1s.06,0,0,0,0,0,0-.06.06,0,.07-.05a.24.24,0,0,0,.18.06.12.12,0,0,0,.11.06s0,0,.07,0,0,0,0,0a.22.22,0,0,1,.1.18s0,.06.05.07,0,.13,0,.18,0,.16,0,.22,0,0,0,.09a0,0,0,0,1,0,0,2.6,2.6,0,0,0,0,.28,2.4,2.4,0,0,1,0,.27.86.86,0,0,1,0,.15s0,0,0,0a.15.15,0,0,0,.08,0s0,0,0,.07a.08.08,0,0,1,0,.08c0,.13-.07.22,0,.32a.16.16,0,0,0,0,.12s0,0,0,0,0,.21,0,.29a3.09,3.09,0,0,0,0,.45s0,0,0,0,0,0,0,0,0,0,0,0,0,.13,0,.18,0,.09,0,.12a1.22,1.22,0,0,1,0,.27s0,.07,0,.09,0,0,0,0,0,.16,0,.22h0s0,0,0,0,0,0,0,0,0,0,0,0,0,0,0,0,0,.21,0,.3,0,0,0,0,0,0,0,.07,0,0,0,0a.91.91,0,0,0,0,.23s0,0,0,0,0,0,0,0,0,0,0,0,0,0,0,0a1.66,1.66,0,0,0,.22,0s0,0,0,0,.19,0,.27,0a0,0,0,0,0,0,0l.21,0v0c.06,0,.08.05.15,0A.3.3,0,0,0,6.48,7V7c.07,0,.1,0,.18,0s0,0,.06-.06a1.66,1.66,0,0,0,.32,0s0,0,0,0v-.1s0,0,0,0,0-.12,0-.14a.25.25,0,0,0,0-.09c0-.09,0-.18,0-.29s0,0,0,0,0-.1,0-.11A.42.42,0,0,1,7,6,0,0,0,0,0,7,6c0-.07,0-.1,0-.15s0-.08,0-.09a1.69,1.69,0,0,0,0-.39A.64.64,0,0,1,7,5.1h0a1.85,1.85,0,0,0,0-.24s0,0,0,0,0,0,0-.07,0-.1,0-.14,0,0,0,0,0,0,0,0,0-.17,0-.26,0,0,0,0,0,0,0,0,0-.09-.11-.1,0,0,0-.06,0,0,0,0S6.61,4,6.6,3.92a.09.09,0,0,1-.07-.06c-.06,0-.08,0-.14,0s0,0,0,0a.49.49,0,0,0,0-.17s0,0,0,0,0-.08,0-.13,0,0,0,0,0-.11,0-.13,0-.14,0-.24,0,0,0,0,0,0,0,0,0-.11,0-.13,0,0,0,0,0-.09,0-.13,0,0,0,0,0,0,0,0a2.35,2.35,0,0,1,0-.27s0,0,0,0a2.26,2.26,0,0,0,0-.26s0,0,0,0,0-.24,0-.4c0,0,0,0,0,0s0-.13.07-.2,0,0,0,0,0,0,0,0a.18.18,0,0,0,0-.1l.11,0a.67.67,0,0,0,.09-.14.06.06,0,0,0,0,0s0,0,0,0H7s0,0,0,0a.08.08,0,0,0,0,.06s0-.05,0-.05,0,0,.06,0,0,0,.07.06.07.05.12.06v.09s0,0,0,0,0,.09,0,.09,0,.06,0,.09a1.93,1.93,0,0,0,0,.34s0,0,0,0a.42.42,0,0,0,0,.12s0,.13,0,.15,0,.11,0,.14,0,.06,0,.07,0,0,0,0,0,0,0,0,0,.27,0,.41,0,0,0,0,0,0,0,0v0a0,0,0,0,0,0,0,3.17,3.17,0,0,1,0,.52.29.29,0,0,1,0,.16s0,.1,0,.17h0c0,.09,0,.2,0,.28s0,.1,0,.14,0,0,0,.07a.25.25,0,0,1,0,.07s0,0,0,0v0a.25.25,0,0,1,0,.07s0,.1,0,.14a.76.76,0,0,0,0,.3.08.08,0,0,0,0,.07s0,0,0,0a5.78,5.78,0,0,1,0,.58s0,0,0,0,0,.1,0,.1,0,0,0,0a3.08,3.08,0,0,0,0,.33,1.9,1.9,0,0,0,0,.33l0,0s0,.08,0,.09,0,.09,0,.13,0,.24.06.27,0,0,0,0a.75.75,0,0,1,0,.22.24.24,0,0,1-.09,0s0,0,0,0-.11,0-.11,0-.15,0-.24,0,0,0,0,0-.12,0-.13.07,0,0-.08,0-.09,0-.12,0,0,.05,0,.06-.21,0-.3,0-.12,0-.18,0a0,0,0,0,1,0,0l-.26,0v0s0,0,0,0l-.06,0s0,0-.1,0,0,0,0,0l-.19,0v0c-.06,0-.08,0-.14,0s-.14-.06-.22-.07,0,0,0,0-.13,0-.18,0,0,0,0,0,0,.28,0,.42h0v0h0v0h0V8s0,.08,0,.12h0v0s0,0,0,0,0,.08,0,.11h0a.75.75,0,0,0,0,.26c0,.22,0,.47,0,.71,0,0,0,.06,0,.09h0s0,.12,0,.12h0c0,.05,0,.12,0,.16a1.61,1.61,0,0,1,0,.22c0,.12,0,.3,0,.41a.43.43,0,0,1,0,.16c.05.07,0,.19,0,.24s-.06.18,0,.17l0,0s0,0,0,0,0,0,0,0a1.19,1.19,0,0,0,0,.33h0c0,.12,0,.2,0,.32s0,0,0,0a.36.36,0,0,1,0,.11s0,.11,0,.15a1.9,1.9,0,0,0,0,.35.38.38,0,0,0,0,.15s0,0,0,0,0,0,0,.06a.92.92,0,0,0,0,.24s0,0,0,0,0,.13,0,.19a.07.07,0,0,0,0,.09s0,0,0,0,0,.2,0,.25,0,.13,0,.16,0,0,0,0a1.55,1.55,0,0,1,0,.23s0,0,0,0,0,0,0,0a1.07,1.07,0,0,0,0,.18h0c0,.05,0,.07,0,.12s0,0,0,0,0,0,0,0,0,.16,0,.18,0,0,0,0a2.25,2.25,0,0,0,0,.26s0,0,0,0c.06.88.06,2,.1,2.85a.33.33,0,0,1,0,.1c0,.05,0,.15,0,.17s-.07.17,0,.19h0s0,0,0,0,0,0,0,0,0,0,0,0V18l0,0v.06s0,0,0,0,0,.19,0,.29h0c0,.16,0,.32,0,.48s0,0,0,0,0,.05,0,.06c0,.56,0,1.09.1,1.61,0,0,0,0,0,0s.11-.06.14-.11a1.39,1.39,0,0,0,.21-.11l.1,0,.11,0,0,0a1.33,1.33,0,0,0,.19,0,.65.65,0,0,1,.21,0s0,0,0,0l.23,0s0,0,0,0a.51.51,0,0,1,.17,0l.23,0a.64.64,0,0,1,.24,0s0,0,0,0a.2.2,0,0,1,.09-.09c0-.06.07-.07.1-.13s.07-.05.06-.08h0c0-.1.06-.2.09-.3a.41.41,0,0,1,0-.11.62.62,0,0,0,0-.1c0-.13.05-.29.08-.45a.89.89,0,0,0,0-.14v-.05h0c0-.09,0-.18,0-.29a1.56,1.56,0,0,0,0-.3.72.72,0,0,0-.12-.25s0-.05-.06-.09a.29.29,0,0,1-.13-.16c0-.17,0-.33,0-.49a2.43,2.43,0,0,1,0-.3s0,0,0,0,.09-.05.12-.08,0,0,0,0,0,0,.07,0a.74.74,0,0,0,0-.26,2.7,2.7,0,0,1,.12-.47h0s0-.1.09-.13.08-.13.1-.2,0,0,0,0,.12-.11.16-.18,0,0,0,0,.06,0,.1,0,0,0,0,0h0a.89.89,0,0,1-.09-.29v-.12c0-.05,0-.1,0-.14l0,0a.57.57,0,0,1,0-.13s0,0,.05-.06,0,0,0,0,.09,0,.13,0l0,0s.07,0,.11,0,0,0,.06,0a.19.19,0,0,1,.05.13l0,0c0,.07,0,.13,0,.22a.69.69,0,0,1,0,.13S9,14.94,9,15s0,0,0,.07a.42.42,0,0,1,.19,0l0,0s.1,0,.13.06.11,0,.15,0,0,0,0,0l.13,0,0,0a.13.13,0,0,0,.1,0l.21.12a.78.78,0,0,0,.14-.29h0s0-.06,0-.09h0s0-.07,0-.09.05,0,.07,0l.1,0v0s.05.05.07.08h0c0,.06.12.08.1.19a.93.93,0,0,1,0,.13s0,0,0,.05,0,0,0,0,0,.13-.05.17,0,.05-.06.06h0l0,.06s-.05,0-.06.06a4,4,0,0,0,.09.48c0,.07,0,.16.06.21a.76.76,0,0,0,.06.26.24.24,0,0,0,0,.12s0,.07,0,.11v0a.09.09,0,0,0,0,.05s0,0,0,0,0,0,0,.05,0,.1,0,.16-.1.13-.14.21-.05,0-.08.06a.12.12,0,0,1,0,.08,1.27,1.27,0,0,0,.11.54,2,2,0,0,1,0,.34h0a.27.27,0,0,1-.12.17s0,0,0,0-.08.07-.08.11-.11,0-.17,0l-.07,0a.22.22,0,0,0-.08,0l-.16,0a.34.34,0,0,0-.2,0,.08.08,0,0,0-.07,0l-.06,0c-.07,0-.13,0-.22,0a0,0,0,0,1,0,0s-.12,0-.17,0,0,0,0,.05-.06.12-.1.18v0a.3.3,0,0,0,0,.1l0,0s0,.06,0,.09l0,0c0,.18-.11.29-.14.47s0,.18,0,.27a.26.26,0,0,0,0,.21s.06,0,.1,0v0a2.66,2.66,0,0,0,.33.08s0,0,0,0,.12.05.18,0l.06,0a1.15,1.15,0,0,1,.39.05s0,0,0,0a.7.7,0,0,1,.29.19s0,0,0,0,.16.16.2.27a.5.5,0,0,1,.08.12s0,.06.06.07v0a2.36,2.36,0,0,1,.13.23c0,.1.11.16.13.28a.09.09,0,0,1,0,.07,1.1,1.1,0,0,1,.09.14c0,.06,0,.08.08.13a.53.53,0,0,0,.08.15s0,0,0,0,0,0,0,0,.07.12.07.2c.11.23.24.46.35.7,0,0,0,0,0,0s.07.13.11.21l.07.15s0,.07.07.11,0,.11.07.14,0,0,0,.07l0,0s0,0,0,.08.07.12.14.14,0,0,0,0a3,3,0,0,0,.29.32s.05,0,.08,0h.05s0,.07.09.06,0,0,0,0,.08-.05.15-.06,0,0,0,0a.49.49,0,0,0,.11-.14c.05,0,.06-.1.1-.14s0,0,0,0a.48.48,0,0,0,.14-.2h0s0,0,0,0,.16-.25.27-.35v0a.54.54,0,0,0,.15-.21h0c.12-.17.25-.33.36-.5,0,0,0,0,0,0s0,0,0,0h0c0-.09.11-.14.15-.23h0c.07-.14.19-.24.25-.38a.13.13,0,0,0,.07-.09s0,0,0,0a2.15,2.15,0,0,0,.21-.46s0,0,0,0a.23.23,0,0,0,.06-.13,1.56,1.56,0,0,1,.06-.15,2.42,2.42,0,0,0,0-.27.74.74,0,0,0,0-.26.29.29,0,0,1,0-.16s0,0,.07,0v0h0a1.22,1.22,0,0,0,.12-.19s-.06,0-.07,0,0,0,0,0,0,0-.06,0-.11-.05-.15,0a.07.07,0,0,0-.07,0l-.05,0s0,0,0,0,0,0-.07-.05,0,0,0,0-.08-.05-.13-.05h0c-.16,0-.26-.12-.44-.15,0,0-.11,0-.15-.06h0l-.21-.09s0,0,0,0a.11.11,0,0,0-.06,0s-.07,0-.09-.06,0,0,0,0a0,0,0,0,1,0,0s-.06-.06-.11-.07,0,0,0,0c0-.35,0-.65,0-1a1.88,1.88,0,0,0,0-.42,2.41,2.41,0,0,0,0-.38c0-.2,0-.42,0-.63s0-.51,0-.75c0,0,0-.07,0-.1a2.51,2.51,0,0,0,0-.48l0,0s0,0,0,0a3.8,3.8,0,0,1,0-.47s0,0,0,0,0-.16.08-.14a1.53,1.53,0,0,0,.41.07l0,0a.36.36,0,0,0,0-.18c0-.05,0-.13,0-.17s0,0,0-.07,0-.08,0-.12,0-.2,0-.31,0-.08,0-.13,0-.06,0-.1a.32.32,0,0,0,.14,0s0,.07.1.08,0,0,.05.07.11.09.16.14h0c0,.08.13.11.17.19s0,0,.09,0a.08.08,0,0,0,0,0c0-.24,0-.5,0-.72a1.09,1.09,0,0,1,.08-.45h.06l.08,0v0s.06.05.11.06.09.08.1.15,0,0,.05.06.1.24.18.32,0,0,0,0,.1.13.17.19v0s0,.08.08.09.09.19.15.26a.16.16,0,0,0,0-.07,1.08,1.08,0,0,0,.18-.24h0s0,0,0,0,.07-.1.13-.12.09-.09.11-.16.12-.19.21-.25a3.38,3.38,0,0,1,.4-.44s.07,0,.11,0,0,0,0,0,0,0,.05,0,0,0,0,.06v0s0,0,0,0,0,0,0,.06l0,.09c0,.06,0,.12,0,.19s0,.1,0,.14a.59.59,0,0,1,0,.17v.05s0,.07,0,.11l.07,0c.1-.09.21-.22.31-.31h0c.08-.09.18-.16.26-.26s.05,0,.07-.06,0,0,0,0,0,0,0,0,.09,0,.12,0,0,0,0,0A.49.49,0,0,1,18,14a.31.31,0,0,1,0,.09s0,0,0,0a.37.37,0,0,1,0,.11s0,.1,0,.15a2.41,2.41,0,0,1,0,.38.15.15,0,0,0,.1-.07c.08,0,.11-.07.16-.11h0c0-.05.12-.06.16-.11a.14.14,0,0,0,.1-.07s0,0,0,0,0,0,.06,0h.07s0,0,.06,0,0,.05,0,.06,0,.28,0,.41,0,.12,0,.18,0,.09,0,.12,0,0,0,0c0,.33,0,.65,0,1a.06.06,0,0,0,0,0,.62.62,0,0,1,0,.19.2.2,0,0,1,0,.11c0,.16,0,.32,0,.48a.42.42,0,0,1,0,.16.1.1,0,0,1,0,.09s0,.09,0,.13a.78.78,0,0,0,0,.34s0,0,0,0a.75.75,0,0,1,0,.21l0,.19v.15l0,0a.86.86,0,0,1,0,.16s0,.09,0,.13a.22.22,0,0,0,0,.08A1.23,1.23,0,0,0,19,19a2.22,2.22,0,0,0,0,.38s0,0,0,.06,0,0,0,0a.94.94,0,0,0-.22.07s0,0,0,0h0s0,0,0,0,0,0-.05,0-.19.06-.26.13h0a1.94,1.94,0,0,1-.24.15,1.19,1.19,0,0,0-.25.13.11.11,0,0,0-.1,0s0,0,0,0,0,0-.08,0-.18.08-.24.15-.06,0-.1.05-.16,0-.21.09h0a.83.83,0,0,0-.15.11s0,.05,0,.07a.21.21,0,0,0-.1.21h0a1.77,1.77,0,0,1-.06.17s0,0,0,.06-.19.24-.35.3a.38.38,0,0,1-.14.11c0,.05-.07.06-.09.11a.83.83,0,0,0-.15.11h0s0,0,0,0h0c0,.07-.09.09-.1.17a.18.18,0,0,0-.06.13c-.09.08-.09.24-.18.31s0,.11,0,.16a3.62,3.62,0,0,0-.22.32c0,.05,0,.06-.06.11s-.1.16-.18.21-.07.09-.08.16h0a1.59,1.59,0,0,1-.15.21c0,.09-.1.14-.13.22h0a1.34,1.34,0,0,0-.18.28c-.07,0-.09.16-.16.2s0,.06-.06.09l0,0a.78.78,0,0,1-.11.18c0,.05-.05.09-.06.14h0v0a1,1,0,0,0-.16.24s0,0,0,.06a.07.07,0,0,0-.05.07s0,0-.05,0-.07.1-.1.16h0c0,.06-.08.09-.1.16s0,0,0,0v0a.06.06,0,0,0,0,.06s0,0-.06.06-.07.06-.07.11,0,0,0,0h0c-.09.15-.19.29-.28.43a.25.25,0,0,0-.08.1h0s0,0,0,0a.83.83,0,0,0-.11.15l-.06,0s0,0,0,0-.13.08-.2.13,0,0,0,0-.12,0-.17,0-.09,0-.11-.05,0,0,0,0L12,26.33h0c-.05-.06-.13-.07-.17-.13s0,0-.06,0a.1.1,0,0,0-.06-.05c0-.06-.1-.08-.12-.12h0a1.07,1.07,0,0,0-.14-.16s0,0,0-.05-.15-.18-.21-.29-.05-.07-.08-.09a1.67,1.67,0,0,0-.17-.26,4.48,4.48,0,0,0-.28-.47,2.61,2.61,0,0,0-.17-.28.23.23,0,0,0-.07-.11s0-.07,0-.08c-.07-.19-.22-.3-.28-.5s-.12-.22-.19-.32l-.08-.08s0-.05,0-.06,0-.05,0-.08h0a1.25,1.25,0,0,0-.08-.12,2.41,2.41,0,0,1-.1.43l0,0v0s0,0,0,0a3.76,3.76,0,0,1-.25.58c0,.16,0,.27.06.41s0,0,0,0a1.42,1.42,0,0,1,.08.48s0,0,0,0a.53.53,0,0,0,0,.13v0s0,.05,0,.08,0,0,0,.08l.1.34s0,.06,0,.09a1.29,1.29,0,0,0,.06.21c0,.12.05.27.07.41H9.8s.06,0,.08,0a4.8,4.8,0,0,0,.75.09.27.27,0,0,0,.15,0s.09,0,.14,0v0s.12,0,.18,0a.64.64,0,0,1,.19.05s.05,0,.08,0a1.55,1.55,0,0,1,.31.07,2.23,2.23,0,0,1,.27,0l0,0s.11,0,.17.06a.84.84,0,0,1,.24.07s0,.06.06.08a.19.19,0,0,1,0,.18.59.59,0,0,1,0,.2.19.19,0,0,1,0,.25c0,.11-.09.17-.12.28s.28.06.41.12,0,0,.07,0a.65.65,0,0,0,.14,0,.64.64,0,0,0,.17.05.83.83,0,0,0,.22.08s0,0,0,0,.12,0,.16.08.08,0,.09,0h0a0,0,0,0,1,0,0,2.76,2.76,0,0,1,.61.23s0,0,0,0,0,0,0,0,0,0,0,0a.06.06,0,0,0,.06,0,.1.1,0,0,0,.06.08s0,.05,0,.07,0,.07,0,.1a1.78,1.78,0,0,0,0,.4,1.08,1.08,0,0,1,0,.18,1.52,1.52,0,0,1,0,.21c0,.1,0,.19,0,.28s0,.07,0,.1a.21.21,0,0,1,0,.14.78.78,0,0,1,0,.23c-.06.33-.15.64-.19.92h0c0,.09,0,.2-.06.3h0s0,0,0,0c0,.21-.08.42-.13.61s0,.18-.06.26v0c0,.05,0,.14-.07.2s0,0,0,0a.16.16,0,0,1,0,.1.15.15,0,0,1,0,.07.13.13,0,0,1,0,.09c0,.07,0,.13,0,.2a1.41,1.41,0,0,0-.08.31c0,.06,0,.12,0,.17s0,.13,0,.19,0,.12,0,.19,0,.07,0,.11,0,.06,0,.08,0,.14-.05.22,0,0,0,.06a.43.43,0,0,1,0,.05,1.52,1.52,0,0,0,0,.21.77.77,0,0,0,0,.26.35.35,0,0,0,.06.14.06.06,0,0,0,0,.06c0,.05.07.1.11.13l.05.09a.76.76,0,0,1,.09.09h0a.67.67,0,0,0,.24.16S14,36,14,36s.1.06.16.07a1.28,1.28,0,0,0,.41.18h0s0,0,.06,0a1,1,0,0,1,.25,0,.71.71,0,0,1,.25,0s.07,0,.09,0,.08,0,.12,0,0,.07.05.12,0,.14,0,.22,0,0,0,0a.07.07,0,0,1,0,.05s-.11,0-.17.09l-.14,0h-.07s-.1,0-.16,0-.08,0-.14,0,0,0-.07,0a.07.07,0,0,0-.06,0s-.08,0-.11,0h-.07l0,0c-.05,0-.1,0-.15,0a.71.71,0,0,0-.21,0l0,0,0,0s-.06,0-.1,0-.17,0-.23-.07a.11.11,0,0,1-.08,0c-.05,0-.08,0-.1,0s-.14,0-.18,0,0,0,0,0-.11,0-.16,0-.14,0-.22,0,0,0-.08,0l0,0s0,0-.08,0l0,0a1,1,0,0,1-.45-.06.3.3,0,0,0-.24-.09l-.15-.09s0-.07,0-.08a.06.06,0,0,0,0-.06s0,0,0,0,0,0,0,0,0-.08.06-.1a3,3,0,0,1,.1-.32h0s0,0,0,0,0-.09,0-.12a.29.29,0,0,0,.05-.21.28.28,0,0,0,.05-.2.42.42,0,0,0,0-.16s0,0,0,0a4.6,4.6,0,0,0,.05-.64.67.67,0,0,0,0-.24s0-.1,0-.15a1.39,1.39,0,0,0,0-.27.89.89,0,0,0,0-.23,2.37,2.37,0,0,0,0-.45,2.72,2.72,0,0,1,0-.49c0-.13,0-.25,0-.37s0-.14,0-.21a1.77,1.77,0,0,0,0-.56,5.72,5.72,0,0,0,.2-.79l0-.13s0-.07,0-.11a.69.69,0,0,0-.06-.37c-.06,0-.07-.1-.14-.11v0a.8.8,0,0,0-.23-.1h0s0,0,0,0-.07,0-.12,0-.15,0-.22,0a.69.69,0,0,1-.28-.08c-.07,0-.12,0-.18,0-.15.24-.31.42-.45.67,0,0,0,0,0,0a.24.24,0,0,1-.1.14c0,.06-.06.15-.14.16a0,0,0,0,1,0,0,.31.31,0,0,1-.18-.05s-.06,0-.1,0l0,0s0,0,0,0,0,0,0,0L10,30.54l-.07,0h0a.27.27,0,0,0-.09,0,1.12,1.12,0,0,1-.21,0,.27.27,0,0,0-.12,0h0l-.21,0a.93.93,0,0,1-.24,0h0a.45.45,0,0,0-.16,0,.45.45,0,0,0-.2,0c0,.06,0,.11,0,.17s0,0,0,0,0,0,0,0a1.31,1.31,0,0,1,0,.4s0,.06,0,.1,0,.23,0,.34,0,0,0,0a.62.62,0,0,0,0,.13l0,0a1.23,1.23,0,0,0,0,.19s0,0,0,.06,0,.09,0,.12-.05.17,0,.25a.77.77,0,0,0,0,.34.9.9,0,0,0,0,.18h0c0,.09,0,.21.09.27s0,0,0,0a.87.87,0,0,0,.23.41s0,0,0,0,0,0,0,.06.1.1.16.13,0,0,0,0,.08,0,.11,0h0a.64.64,0,0,0,.31,0,.74.74,0,0,0,.24,0l.12-.06a.65.65,0,0,0,.25-.17c.08,0,.12-.13.2-.18a2.37,2.37,0,0,0,.3-.39h0a1.07,1.07,0,0,0,.14-.39c0-.17.06-.32.08-.47s0,0,0,0v0a.08.08,0,0,0,0-.07.2.2,0,0,1-.15,0s0-.05-.05-.06a.1.1,0,0,0,0-.09c0-.05,0-.1,0-.15s0-.05,0-.07,0,0,0,0,.18-.23.23-.38c0,0,0,0,0,0l.15-.24s0,0,0,0a.05.05,0,0,0,0-.07c0-.06.08,0,.12,0a0,0,0,0,0,0,0h0a.69.69,0,0,0,.11.13.81.81,0,0,0,.11.32,1,1,0,0,0,.1.24.44.44,0,0,0,0,.16s0,0,0,.08,0,0,0,.07-.09.07-.16.08l0,0c-.06,0-.11,0-.14,0s0,0-.05,0,0,.1,0,.17a.08.08,0,0,0,0,0s0,.05,0,.07h0a.27.27,0,0,0,0,.12s0,0,0,.06,0,.13-.05.17,0,0,0,0,0,.22-.07.34h0s0,.06,0,.09,0,0,0,.06l-.05.05s0,0,0,0l-.05,0a0,0,0,0,0,0,0s-.06,0-.06.09,0,0,0,0,0,0,0,0a.34.34,0,0,0-.09.12.08.08,0,0,0-.07.07.2.2,0,0,0-.09.09c-.11.08-.17.2-.31.25s0,0,0,0A.68.68,0,0,0,9.9,34a1.49,1.49,0,0,1-.48.09l0,0a.15.15,0,0,0-.13,0s0,0,0,0L9,34c-.1,0-.18-.08-.29-.1s0,0,0,0h0l-.16-.13s-.08-.07-.1-.12h0a.34.34,0,0,0-.11-.17,1.45,1.45,0,0,1-.11-.29s0,0,0,0a2.42,2.42,0,0,1-.08-1.2v0s0,0,0,0,0,0,0,0,0-.07,0-.11,0-.06,0-.08a.36.36,0,0,0,0-.11,1.41,1.41,0,0,0,0-.28s0,0,0,0a2.49,2.49,0,0,0,0-1,7.3,7.3,0,0,0-.81,0s0,0,0,0h0s0,0,0,0S7,30.19,6.83,30.25ZM7,1.47h0S7,1.45,7,1.47ZM5.67,22.76a.68.68,0,0,1-.19.08.19.19,0,0,1-.1.05s0,0,0,.07,0,0,0,.05,0,0,0,.06c-.07,1.32-.15,2.63-.22,3.94a4.09,4.09,0,0,0,.42-.16s.06,0,.09-.05.05,0,.07-.05l.14-.06s0,0,0,0,0,0,0-.05,0,0,0-.05,0,0,0,0,0-.07,0-.12a.29.29,0,0,0,0-.16s0,0,0,0,0-.32,0-.48a.06.06,0,0,0,0,0c0-.16,0-.37,0-.52s0-.25,0-.39a0,0,0,0,1,0,0s0,0,0,0a2.35,2.35,0,0,0,0-.52.37.37,0,0,0,0-.23s0-.07,0-.1l0-.08A1.73,1.73,0,0,1,6,23.49a1,1,0,0,1,0-.18v0a1.49,1.49,0,0,1,0-.21l0-.09a.51.51,0,0,0-.06-.27Zm-1.41,1a1.06,1.06,0,0,0-.23.19l0,0,0,0s0,0-.06,0-.09.12-.15.15-.06.07,0,.12,0,0,0,0a.37.37,0,0,1-.1.16c-.07.22,0,.39.11.59,0,0,0,0,0,0a.42.42,0,0,1,0,.12.4.4,0,0,1,.08.16s.05.08.08.12c.08.19.15.36.24.55,0,0,0,0,0,0a1.05,1.05,0,0,0,.12.21,1.83,1.83,0,0,0,.13.24c0-1,.09-2.05.12-3.05A3.32,3.32,0,0,0,4.26,23.73Zm.37,14.53h0s0,0,0,0Z"/></g></g></svg>