<svg xmlns="http://www.w3.org/2000/svg" viewBox="0 0 58.75 49.99"><defs><style>.cls-1{fill:#d3b8a3;}</style></defs><g id="Calque_2" data-name="Calque 2"><g id="Calque_1-2" data-name="Calque 1"><path class="cls-1" d="M18.93,1a19.86,19.86,0,0,0-15,8.66,24,24,0,0,0-3.85,15A25.25,25.25,0,0,0,5.93,39.4a30.21,30.21,0,0,0,14,9c10.83,3.41,23.62,1.34,32-6.62a21.42,21.42,0,0,0,6.85-14.67,24.81,24.81,0,0,0-5.22-15.55,28.45,28.45,0,0,0-14.3-9.89,40.89,40.89,0,0,0-19-1c-1.56.27-3.11.61-4.64,1a.5.5,0,0,0,.27,1C27.22-.43,41,.4,49.89,9a25.57,25.57,0,0,1,7.58,14,19.82,19.82,0,0,1-3.66,15.12C47.24,47,35,50.36,24.45,48.49A31.17,31.17,0,0,1,9.78,41.83a24.44,24.44,0,0,1-7-27.95,19.34,19.34,0,0,1,11.67-11A18,18,0,0,1,18.93,2c.64,0,.64-1,0-1Z" transform="translate(0 0)"/><path class="cls-1" d="M8.49,22.09l10.22-2.45-.49-.84L8.71,28.47c-.46.46.25,1.17.7.71q4.77-4.83,9.52-9.67a.5.5,0,0,0-.48-.84L8.22,21.12c-.62.15-.36,1.12.27,1Z" transform="translate(0 0)"/><path class="cls-1" d="M34.92,9.34a14.45,14.45,0,0,1-4.71,5.52.5.5,0,0,0,.25.93,15.57,15.57,0,0,0,9.42-2,.5.5,0,0,0-.5-.86,14.6,14.6,0,0,1-8.92,1.84l.26.93a15.54,15.54,0,0,0,5.07-5.87c.28-.58-.58-1.09-.87-.51Z" transform="translate(0 0)"/><path class="cls-1" d="M14.36,36.88a61.08,61.08,0,0,0,16.78-7.8c2.64-1.7,5.2-3.53,7.71-5.42,1.24-.93,2.45-1.9,3.69-2.83s2.5-1.31,3.83-.39c2.29,1.58,2.72,4.89,2.21,7.42a14.36,14.36,0,0,1-4,7.12c-3.95,4-9.65,5.9-15.15,6.3a35.69,35.69,0,0,1-9.51-.62,17.08,17.08,0,0,1-4.55-1.31c-1.2-.62-2.54-2.37-1.25-3.6.46-.45-.24-1.16-.71-.71A2.92,2.92,0,0,0,13,38.53a5.52,5.52,0,0,0,3.48,2.33,37.21,37.21,0,0,0,9.07,1.48c6,.24,12.29-1.05,17.26-4.59,4.53-3.25,8.47-9.29,6.38-15-.95-2.62-3.66-4.87-6.43-3.26a39.89,39.89,0,0,0-3.93,2.95Q36.78,24,34.63,25.52C28.34,30,21.57,33.89,14.09,35.92a.5.5,0,0,0,.27,1Z" transform="translate(0 0)"/><path class="cls-1" d="M20.83,34.2a5.09,5.09,0,0,0,6.77,2.07,5.09,5.09,0,0,0,1.81-6.84l-.68.68c2.27,1.4,5.5,1.79,7.68,0a4.8,4.8,0,0,0,1.07-6.29c-.37-.52-1.24,0-.86.5a3.82,3.82,0,0,1-.93,5.09c-1.86,1.47-4.57,1-6.46-.14a.5.5,0,0,0-.68.68,4.1,4.1,0,0,1-1.45,5.48,4.1,4.1,0,0,1-5.41-1.71c-.3-.57-1.16-.07-.86.5Z" transform="translate(0 0)"/></g></g></svg>