<svg xmlns="http://www.w3.org/2000/svg" xmlns:xlink="http://www.w3.org/1999/xlink" viewBox="0 0 51.04 46.29"><defs><style>.cls-1{fill:none;}.cls-2{fill:#93725e;}.cls-3{fill:url(#Nouvelle_nuance_de_motif_1);}</style><pattern id="Nouvelle_nuance_de_motif_1" data-name="Nouvelle nuance de motif 1" width="107" height="107" patternTransform="translate(-71.25 122.81) scale(0.63)" patternUnits="userSpaceOnUse" viewBox="0 0 107 107"><rect class="cls-1" width="107" height="107"/><rect class="cls-2" width="107" height="107"/></pattern></defs><g id="Calque_2" data-name="Calque 2"><g id="Calque_1-2" data-name="Calque 1"><path class="cls-3" d="M20.92,9c-5.57,1.11-11.05,5.08-11.3,11.21C9.37,26,14.69,30.77,19.74,32.56a16.66,16.66,0,0,0,15.87-2.81c2.15-1.71,4.18-4.15,4.49-7s-1.4-5.61-3.33-7.63A21.61,21.61,0,0,0,19.49,8.66c-.64.05-.64,1.05,0,1A20.71,20.71,0,0,1,34,14c2,1.63,4.07,3.75,4.83,6.31.84,2.83-.56,5.42-2.5,7.42a15.69,15.69,0,0,1-14.29,4.45c-4.9-1-10.07-4.71-11.26-9.81a9.36,9.36,0,0,1,2.43-8.26,14.4,14.4,0,0,1,8-4.13c.63-.13.36-1.09-.27-1Z"/><path class="cls-3" d="M14.48,7.42A25.89,25.89,0,0,1,9.79,2.47a.52.52,0,0,0-.69-.18A.5.5,0,0,0,8.92,3a27.27,27.27,0,0,0,4.85,5.16.52.52,0,0,0,.71,0,.51.51,0,0,0,0-.71Z"/><path class="cls-3" d="M21.35,4.45A11.16,11.16,0,0,0,21.55.5a.5.5,0,0,0-1,0,10.41,10.41,0,0,1-.17,3.69.5.5,0,0,0,.35.61.51.51,0,0,0,.62-.35Z"/><path class="cls-3" d="M30.88,6.37a19.45,19.45,0,0,0,3.55-3.29.5.5,0,0,0,0-.71.49.49,0,0,0-.7,0A18.1,18.1,0,0,1,30.37,5.5a.53.53,0,0,0-.18.69.52.52,0,0,0,.69.18Z"/><path class="cls-3" d="M40.54,12.41l3.81-1.26a.5.5,0,1,0-.27-1l-3.8,1.25a.52.52,0,0,0-.35.62.51.51,0,0,0,.61.35Z"/><path class="cls-3" d="M47.05,24.43h3.49a.5.5,0,0,0,0-1H47.05a.5.5,0,0,0,0,1Z"/><path class="cls-3" d="M42.62,32.23a10,10,0,0,1,4.15,1.06.5.5,0,0,0,.68-.18.49.49,0,0,0-.18-.68,11.21,11.21,0,0,0-4.65-1.2c-.64,0-.64,1,0,1Z"/><path class="cls-3" d="M35.2,39.4l2.24,3.79a.5.5,0,0,0,.86-.51l-2.23-3.79a.5.5,0,0,0-.87.51Z"/><path class="cls-3" d="M22.4,41.34l-.54,4.45c0,.26.25.5.5.5a.52.52,0,0,0,.5-.5l.54-4.45c0-.27-.25-.5-.5-.5a.52.52,0,0,0-.5.5Z"/><path class="cls-3" d="M10.19,34.89l-8.9,2.75c-.61.19-.35,1.15.27,1l8.9-2.75c.61-.19.35-1.15-.27-1Z"/><path class="cls-3" d="M5.71,22.75A18.58,18.58,0,0,0,.5,22.51.51.51,0,0,0,0,23a.5.5,0,0,0,.5.5,17.41,17.41,0,0,1,4.94.21.52.52,0,0,0,.62-.35.5.5,0,0,0-.35-.62Z"/><path class="cls-3" d="M5.19,13,1.41,10.79a.5.5,0,0,0-.5.86l3.77,2.26A.5.5,0,0,0,5.19,13Z"/></g></g></svg>