<svg xmlns="http://www.w3.org/2000/svg" viewBox="0 0 222.97 10.35"><defs><style>.cls-1{fill:#d3b8a3;}</style></defs><g id="Calque_2" data-name="Calque 2"><g id="Calque_1-2" data-name="Calque 1"><path class="cls-1" d="M.48,4.21q42.42-2,84.9-2.79t84.94-.17q23.84.31,47.66,1c.64,0,.64-1,0-1Q175.53,0,133.05,0T48.12,1.32Q24.28,2.07.48,3.21c-.64,0-.64,1,0,1Z"/><path class="cls-1" d="M13,10.35q40.82-3.06,81.72-5t81.83-2.64q23-.42,46-.46a.5.5,0,0,0,0-1q-40.94.09-81.86,1.33T58.84,6.28Q35.89,7.63,13,9.35c-.64.05-.65,1.05,0,1Z"/></g></g></svg>